<svg width="576" height="181" viewBox="0 0 576 181" fill="none" xmlns="http://www.w3.org/2000/svg">
<path d="M160.141 51.4912L143.686 30.2208C141.282 31.7169 137.491 33.187 133.675 33.187C129.859 33.187 127.114 32.8357 123.899 32.1983C119.913 31.4047 115.391 30.52 108.216 30.52C101.04 30.52 96.5184 31.4177 92.5322 32.1983C89.304 32.8357 86.5725 33.187 82.7562 33.187C78.9399 33.187 75.1497 31.7169 72.7449 30.2208L56.2643 51.4912C58.3031 53.4426 62.0149 57.8398 62.0149 64.0843C62.0149 68.3384 61.3875 72.1892 60.6687 76.6514C59.6885 82.6488 58.5907 89.4527 58.5907 99.574C58.5907 116.929 69.7128 131.889 87.605 138.602C100.557 143.455 105.968 147.032 108.203 148.997C110.437 147.019 115.848 143.455 128.8 138.602C146.705 131.889 157.814 116.942 157.814 99.574C157.814 89.4527 156.704 82.6488 155.736 76.6514C155.005 72.1892 154.39 68.3384 154.39 64.0843C154.39 57.8398 158.102 53.4296 160.141 51.4912Z" fill="white"></path>
<path d="M143.686 30.2208L160.141 51.4912C158.102 53.4426 154.39 57.8398 154.39 64.0844C154.39 68.3384 155.018 72.1892 155.736 76.6514C156.717 82.6488 157.814 89.4527 157.814 99.574C157.814 116.929 146.692 131.889 128.8 138.602C115.848 143.455 110.437 147.032 108.203 148.997C105.968 147.019 100.557 143.455 87.605 138.602C69.6998 131.889 58.5907 116.942 58.5907 99.574C58.5907 89.4527 59.7016 82.6488 60.6687 76.6514C61.4006 72.1892 62.0149 68.3384 62.0149 64.0844C62.0149 57.8528 58.3031 53.4426 56.2643 51.4912L72.7188 30.2208C75.1236 31.7169 78.9138 33.187 82.7301 33.187C86.5464 33.187 89.291 32.8357 92.5061 32.1983C96.4923 31.4047 101.014 30.5201 108.19 30.5201C115.365 30.5201 119.887 31.4177 123.873 32.1983C127.101 32.8357 129.833 33.187 133.649 33.187C137.478 33.187 141.268 31.7169 143.686 30.2208ZM143.987 28.5166L142.994 29.128C140.837 30.468 137.256 31.899 133.662 31.899C129.78 31.899 127.14 31.5348 124.134 30.9364C120.083 30.1428 115.508 29.2321 108.203 29.2321C100.897 29.2321 96.3093 30.1428 92.2708 30.9364C89.2648 31.5348 86.6248 31.899 82.7432 31.899C79.149 31.899 75.568 30.468 73.4115 29.128L72.4182 28.5166L71.7125 29.4403L55.2449 50.7107L54.5391 51.6213L55.3625 52.4149C57.3621 54.3273 60.721 58.3862 60.721 64.0844C60.721 68.2344 60.1067 72.0331 59.3879 76.4433C58.4077 82.4927 57.2837 89.3486 57.2837 99.574C57.2837 117.475 68.7196 132.891 87.1345 139.799C100.282 144.73 105.432 148.281 107.34 149.96L108.19 150.714L109.039 149.96C110.934 148.281 116.084 144.73 129.245 139.799C147.659 132.891 159.095 117.488 159.095 99.574C159.095 89.3486 157.984 82.4927 156.991 76.4433C156.272 72.0331 155.658 68.2213 155.658 64.0844C155.658 58.3862 159.017 54.3273 161.017 52.4149L161.84 51.6213L161.134 50.7107L144.68 29.4403L143.987 28.5166Z" fill="#000F46"></path>
<path d="M151.058 63.8762C151.058 58.2561 153.502 53.924 155.789 51.1009L142.745 34.2537C140.288 35.5547 137.23 36.2962 133.675 36.2962C129.532 36.2962 126.487 35.8929 123.246 35.2424C119.403 34.4879 115.038 33.6293 108.19 33.6293C101.341 33.6293 96.9759 34.4879 93.1334 35.2424C89.8922 35.8799 86.847 36.2962 82.704 36.2962C79.1491 36.2962 76.0908 35.5547 73.6337 34.2537L60.5903 51.1009C62.8775 53.924 65.3215 58.2561 65.3215 63.8762C65.3215 68.3904 64.6811 72.3713 63.9231 76.9766C62.969 82.8569 61.8842 89.5177 61.8842 99.3658C61.8842 115.302 72.1699 129.066 88.7421 135.285C99.0278 139.136 104.883 142.297 108.19 144.587C111.496 142.297 117.351 139.136 127.637 135.285C144.209 129.079 154.495 115.315 154.495 99.3658C154.495 89.5047 153.41 82.8439 152.456 76.9766C151.698 72.3713 151.058 68.3904 151.058 63.8762Z" fill="#000F46"></path>
<path d="M70.5885 39.3664C64.1191 37.8963 61.1262 36.9727 61.1262 36.9727C61.1262 40.8495 63.1258 42.7749 63.1258 42.7749C63.1258 42.7749 63.5571 44.2059 64.7856 46.3394" fill="#000F46"></path>
<path d="M151.136 59.453C154.05 57.8268 154.822 57.1633 155.841 54.2362C155.841 54.2362 158.141 52.2458 159.108 50.6326C161.748 47.8486 162.559 44.4271 162.585 44.4011C164.637 41.9813 165.303 38.6379 165.303 38.6379C167.368 35.4116 167.63 32.5365 167.63 32.5365C167.63 32.5365 162.859 34.1236 152.691 37.35C151.214 37.8183 145.764 39.6917 145.764 39.6917" fill="#000F46"></path>
<path d="M73.0586 75.4156L70.6146 74.544L71.8823 76.9117L69.569 78.5509L72.1829 79.1363L71.9869 81.7772L74.1434 79.9819L76.143 81.7772L76.0123 79.0062L78.7569 78.772L76.4697 77.0158L77.7767 74.6741L75.0844 75.4546L74.078 72.9048L73.0586 75.4156Z" fill="white"></path>
<path d="M88.8074 79.4614L86.3503 78.6418L87.6181 80.9835L85.3047 82.5837L87.984 83.1691L87.7226 85.849L89.8529 84.0537L91.9049 85.849L91.748 83.078L94.4926 82.8439L92.2447 81.1266L93.5124 78.7459L90.8332 79.4614L89.8529 76.9896L88.8074 79.4614Z" fill="white"></path>
<path d="M71.1635 92.9392L72.1437 95.45L74.8361 94.7085L73.5552 97.0242L75.8163 98.7804L73.0717 99.0146L73.2024 101.812L71.2027 99.9903L69.0463 101.812L69.2684 99.1317L66.6545 98.5463L68.9417 96.9461L67.7001 94.6304L70.1572 95.437L71.1635 92.9392Z" fill="white"></path>
<path d="M89.7876 94.1101L90.5717 96.4258H92.9896L91.0292 97.9219L91.7741 100.303L89.7876 98.8716L87.7879 100.303L88.5068 97.9219L86.5463 96.4648L88.8988 96.4258L89.7876 94.1101Z" fill="white"></path>
<path d="M88.7028 112.844L86.2458 111.998L87.4874 114.34L85.1741 115.94L87.8141 116.525L87.6181 119.192L89.7484 117.371L91.7742 119.231L91.5781 116.499L94.3619 116.161L92.114 114.405L93.3817 112.102L90.7286 112.844L89.7484 110.307L88.7028 112.844Z" fill="white"></path>
<path d="M110.045 119.7C108.921 119.7 106.83 119.465 105.366 117.891C103.85 116.265 101.576 112.115 101.681 107.705C101.681 107.679 101.72 107.666 101.733 107.692C103.811 110.684 106.19 112.531 107.183 113.104C107.183 113.104 107.863 113.533 108.294 113.754C108.32 113.767 108.346 113.728 108.32 113.715L107.941 113.26L107.405 112.596C103.981 108.407 103.772 108.16 102.491 105.675C100.204 101.239 100.139 94.5264 100.269 91.3C100.269 91.274 100.309 91.261 100.322 91.287C102.282 95.0077 107.954 105.675 116.005 114.782C116.018 114.795 116.018 114.808 116.005 114.808C115.678 115.315 115.495 115.732 115.339 116.109C115.247 116.33 115.156 116.538 115.051 116.746L115.012 116.824C114.528 117.748 114.149 118.464 112.646 119.205C112.019 119.504 111.039 119.7 110.045 119.7Z" fill="white"></path>
<path d="M127.036 121.989C124.37 121.989 122.396 120.87 122.331 120.584C122.305 120.376 122.88 120.09 123.389 119.856C123.912 119.608 124.487 119.322 124.814 118.971L124.827 118.958C125.18 118.464 125.18 118.034 125.101 117.748C125.01 117.397 124.788 117.124 124.605 117.033L124.579 117.02C124.5 116.981 124.291 116.903 124.03 116.903C123.533 116.903 122.788 117.189 122.03 118.542C121.442 119.517 120.932 120.363 119.364 120.363C119.037 120.363 118.684 120.324 118.292 120.259C118.279 120.259 116.855 120.025 116.41 118.971C116.057 118.125 116.423 116.955 117.495 115.458C117.887 114.951 117.822 114.431 117.312 113.845C109.379 105.116 101.629 91.339 100.648 89.2055C100.387 88.6851 100.06 88.0607 100.23 87.4882C100.766 86.5776 101.995 86.4735 102.504 86.4735C103.197 86.4735 103.746 86.6426 103.981 86.8118C103.615 87.2281 102.648 88.477 103.393 89.4657C103.602 89.7129 103.877 89.8429 104.19 89.8429C104.425 89.8429 104.687 89.7649 104.922 89.6088C105.053 89.5177 105.197 89.4787 105.34 89.4787C105.798 89.4787 106.307 89.908 106.935 90.4674C107.484 90.9618 108.007 91.4301 108.608 91.4301C109.418 91.4171 109.771 90.6756 109.954 89.9861C110.189 90.4544 110.451 90.8967 110.751 91.313C110.843 91.4691 111.052 91.5732 111.287 91.5732C111.483 91.5732 111.64 91.5082 111.757 91.3781C111.836 91.287 111.927 91.1049 111.888 90.8187C111.757 90.1292 111.666 88.6201 112.045 88.2038C112.084 88.1647 112.15 88.1127 112.293 88.1127C112.398 88.1257 112.659 88.2688 112.777 88.7111C113.26 90.4024 113.862 90.8317 114.75 90.9878C114.881 91.0138 115.012 91.0268 115.129 91.0268C116.24 91.0268 116.842 90.0771 117.234 89.4397C117.338 89.2835 117.573 88.9063 117.717 88.7502C117.717 88.8022 117.704 88.8542 117.704 88.9063C117.613 89.7519 117.351 92.0155 118.867 93.4075C119.769 94.2661 121.102 94.7605 123.742 95.2288C126.16 95.6972 128.892 96.2306 131.414 98.182C132.015 98.5723 132.42 99.2227 132.42 99.2357C132.616 99.561 134.42 102.553 136.903 105.207C139.256 107.718 144.34 113.117 145.307 114.145C143.007 114.639 142.51 115.719 141.7 117.475C141.438 118.034 141.151 118.659 140.759 119.374C139.779 121.131 137.178 121.924 135.165 121.924C134.263 121.924 133.832 121.755 133.767 121.638C133.557 120.285 135.57 119.543 136.903 119.049C137.295 118.906 137.622 118.763 137.844 118.672C140.393 117.54 140.693 113.312 140.393 113.156C135.845 111.139 130.669 106.82 128.212 104.843C125.402 102.579 123.468 100.628 123.468 100.628C123.167 100.667 127.689 107.354 138.824 113.975C138.838 116.85 137.792 117.202 136.211 117.735C135.675 117.917 135.073 118.125 134.446 118.451C133.414 119.036 132.969 119.504 132.695 119.843C131.819 121.118 129.323 121.898 127.31 122.015C127.206 121.989 127.127 121.989 127.036 121.989ZM112.685 95.7622C112.646 95.7752 116.005 103.464 123.834 112.401C124.239 112.87 124.448 113.312 124.448 113.312L124.657 113.767L124.945 113.338C125.585 112.128 125.141 111.53 125.141 111.53C118.737 104.257 114.999 98.8585 113.6 96.829C112.855 95.7492 112.685 95.7622 112.685 95.7622Z" fill="white"></path>
<path d="M132.695 97.6357C132.695 97.6226 132.695 97.6357 132.695 97.6357C132.133 94.5784 129.702 94.3443 129.676 94.3443L129.388 94.3183L129.558 94.5524C129.637 94.6565 129.741 94.7736 129.885 94.9297C130.212 95.281 130.669 95.7883 130.944 96.3477C128.526 94.8777 126.003 94.3833 123.964 93.993C120.266 93.2775 118.423 92.9132 118.946 88.7762C119.05 87.9827 118.488 87.5664 118.096 87.4883C117.992 87.4623 117.887 87.4493 117.796 87.4493C116.972 87.4493 116.515 88.1778 116.149 88.7762C115.704 89.4788 115.469 89.778 115.103 89.778C115.064 89.778 115.012 89.778 114.96 89.765C114.594 89.6999 114.345 89.6479 113.979 88.373C113.679 87.3322 112.881 86.8639 112.228 86.8639C112.15 86.8639 112.071 86.8769 111.993 86.8899C111.496 86.9679 110.869 87.3062 110.607 88.3469C109.091 84.1449 111.13 77.2759 111.13 77.2759C111.13 77.2759 107.993 81.504 109.013 87.4883C109.013 87.5013 109.013 87.5143 109.013 87.5143C108.882 89.4527 108.647 90.0121 108.555 90.1552C108.477 90.1162 108.268 89.9731 107.771 89.5308L107.758 89.5178C107.144 88.9714 106.307 88.2299 105.327 88.2299C105.027 88.2299 104.726 88.3079 104.425 88.451C104.504 88.1518 104.687 87.9436 104.857 87.7485C105.131 87.4233 105.432 87.085 105.236 86.4476C104.987 85.7451 103.785 85.2247 102.439 85.2247C101.707 85.2247 100.988 85.3808 100.348 85.667L100.374 85.4328C100.609 82.5708 101.406 77.7052 103.916 70.7712C104.491 70.5501 105.589 70.3029 107.052 70.2118C107.262 70.1988 107.601 70.1858 107.967 70.1858C108.673 70.1858 111.13 70.2118 113.051 70.6021C114.28 71.7469 117.456 77.1328 118.057 78.4728C120.044 82.961 121.677 85.628 121.69 85.641C122.932 87.5143 124.526 89.0625 126.199 89.9991C126.225 90.0121 126.252 90.0251 126.265 90.0382C126.84 90.4024 127.755 90.7147 127.794 90.7277C127.794 90.7277 128.277 90.8838 128.29 90.8447L127.859 90.4675C126.657 89.4267 125.598 88.3209 124.775 87.2151C128.212 89.7389 131.061 91.274 132.969 92.3148C133.74 92.7311 134.42 93.0954 134.995 93.4466C134.459 93.4987 134.002 93.7458 133.688 94.1752C133.361 94.6045 133.361 95.1379 133.348 95.7103C133.348 96.725 133.178 97.3625 132.852 97.5966C132.786 97.6096 132.734 97.6357 132.695 97.6357Z" fill="white"></path>
<path d="M135.466 94.5394C135.335 94.5394 135.204 94.5524 135.06 94.5915C134.577 94.7085 134.538 95.0858 134.525 95.7753C134.512 96.2827 134.498 96.8941 134.172 97.4665C135.622 97.1543 136.537 96.4128 136.524 95.5281C136.511 95.2029 136.367 94.9167 136.132 94.7346C135.962 94.6175 135.727 94.5394 135.466 94.5394Z" fill="white"></path>
<path d="M114.071 69.4572V69.4442C114.149 69.3141 114.254 69.1579 114.371 68.9888C115.169 67.779 116.645 65.5674 117.051 63.0435C117.051 63.0305 117.064 63.0305 117.064 63.0305C117.325 63.0435 117.939 63.0565 118.253 63.0826C119.103 63.1606 119.638 63.2387 120.305 63.3558C120.514 63.3948 120.749 63.4338 120.985 63.4858C121.573 63.5899 122.239 63.707 122.919 63.8501C124.082 64.0843 125.245 64.3184 125.899 64.3705C126.16 64.3965 126.448 64.4095 126.748 64.4095C127.898 64.4095 130.199 63.9672 130.199 63.9672C130.316 65.2421 130.107 66.5561 129.78 67.3627C128.539 67.2195 127.062 66.3869 126.435 66.1398C126.5 66.491 127.48 68.9888 127.297 70.3158C126.461 70.3678 123.991 69.6393 122.331 68.4424C122.88 69.9385 123.206 71.2395 123.076 72.5014C121.978 72.3973 119.952 71.7728 118.462 70.8882C118.684 71.8899 119.403 74.5569 118.358 75.7927C118.331 75.8318 118.266 75.8448 118.24 75.7927C117.835 75.1813 115.613 71.6297 114.071 69.4572Z" fill="white"></path>
<path d="M89.9313 60.845C89.1864 60.4677 87.7749 59.9083 87.6311 59.8563C85.9059 58.8546 84.4029 58.3732 83.0045 58.3732C82.8085 58.3732 82.6124 58.3862 82.4033 58.3992C81.0964 58.4903 80.5736 58.5163 80.3383 58.5684C79.7894 58.4643 79.2274 58.1 78.6916 57.7488C78.6393 57.7097 78.587 57.6837 78.5347 57.6447C79.1751 57.6837 79.7894 57.6967 80.3514 57.6967C82.9392 57.6967 85.0041 57.2804 85.6445 57.1373C87.1083 57.9439 88.9381 58.2691 89.9967 58.4123C89.8137 58.9847 90.0228 59.5831 90.5979 60.1035C90.3104 60.4157 90.0751 60.6759 89.9313 60.845Z" fill="white"></path>
<path d="M147.607 58.0089C148.757 57.4495 148.993 56.812 149.202 56.4738C149.528 56.4998 149.816 56.5128 150.103 56.5128C151.528 56.5128 152.743 56.1485 154.246 55.2899C153.502 56.6429 152.155 57.8398 150.992 58.152C150.391 58.3081 148.757 58.4772 147.607 58.0089Z" fill="white"></path>
<path d="M129.323 58.7504C129.323 58.7504 128.722 58.165 128.447 57.9308C128.617 57.7227 128.735 57.5015 128.813 57.2674C128.892 56.9812 128.892 56.6949 128.813 56.4217C131.296 55.8884 138.929 54.2101 143.399 52.5189C143.438 52.8962 143.595 53.4036 144.013 53.9239C144.993 55.1338 146.614 55.9144 147.869 56.2526C147.542 56.6559 146.784 57.2153 145.947 57.4495C145.908 57.1503 145.764 56.747 145.477 56.4608C145.307 56.2786 145.137 56.1355 144.85 56.1355C144.732 56.1355 144.588 56.1616 144.418 56.2136C144.17 56.3047 143.895 56.4087 143.699 56.4868C143.647 56.5128 143.595 56.5388 143.543 56.5518C143.386 56.6169 143.203 56.6689 143.085 56.6949C143.111 56.3567 143.124 55.8884 143.02 55.6932C142.968 55.5631 142.798 55.1859 142.419 55.1859C142.406 55.1859 142.392 55.1859 142.392 55.1859C141.896 55.2119 141.399 55.5631 140.863 55.9404C140.654 56.0965 140.419 56.1485 140.144 56.1876C140.053 56.2006 139.975 56.2136 139.896 56.2266C139.805 56.2396 139.726 56.2526 139.635 56.2656C138.994 56.3567 138.419 56.9161 138.053 57.2804C137.936 57.3974 137.831 57.5015 137.766 57.5536C137.295 57.8658 136.825 57.9178 133.767 58.2561C133.296 58.3081 132.76 58.3732 132.159 58.4382C131.754 58.4772 129.323 58.7504 129.323 58.7504Z" fill="white"></path>
<path d="M91.3821 57.2543C90.9508 57.2413 87.9056 57.0592 85.9974 55.8623C85.1479 55.342 84.4944 54.7175 83.9455 53.95C85.8536 54.1191 89.1994 54.6525 92.1139 56.4087C92.127 56.6429 92.2185 56.9031 92.31 57.0982C91.9179 57.1503 91.552 57.2153 91.3821 57.2543Z" fill="white"></path>
<path d="M80.3775 56.4348C79.2928 56.4348 78.2341 56.3567 77.2278 56.2006C75.1236 55.7583 72.6665 53.8329 71.2681 52.4019C74.1042 53.5467 76.8618 54.1061 79.711 54.1061C80.5997 54.1061 81.5276 54.0541 82.4556 53.937C82.9522 54.8086 83.5273 55.5111 84.233 56.1225C83.292 56.2787 81.9328 56.4348 80.3775 56.4348Z" fill="white"></path>
<path d="M128.003 55.303C127.715 55.1209 127.389 55.0038 127.023 54.9778C127.323 54.1192 127.206 53.4427 126.657 52.9223C129.153 51.8946 136.929 48.8243 145.098 47.0551C145.869 47.3543 147.045 47.6925 148.378 47.7576C148.117 48.2519 147.777 48.4991 147.411 48.7723L147.267 48.8764C146.784 49.2406 145.947 49.5919 145.15 49.9431L144.954 50.0212C144.745 50.1123 144.536 50.2424 144.327 50.3985C143.974 50.6717 143.752 50.9579 143.712 51.0099C139.125 52.9483 129.362 55.0168 128.003 55.303Z" fill="white"></path>
<path d="M150.051 55.251C149.672 55.251 149.319 55.225 148.993 55.186C147.947 55.0689 146 54.3533 144.993 53.1175C144.392 52.3889 144.719 51.8165 144.758 51.7515C144.784 51.7254 144.836 51.6604 144.915 51.5823C145.673 51.7905 147.189 52.1287 149.332 52.1287C149.398 52.1287 149.476 52.1287 149.541 52.1287C152.534 52.0897 154.743 51.8425 157.566 50.6847C156.455 52.1417 155.148 53.1044 154.168 53.82C152.351 55.1079 150.953 55.251 150.051 55.251Z" fill="white"></path>
<path d="M79.8156 52.8442C79.1229 52.8442 78.4041 52.8182 77.6852 52.7531C76.7704 52.6751 75.8032 52.506 74.8099 52.2588H74.7838C71.5948 51.4002 69.3077 50.1513 67.6086 48.2909C66.1971 46.7558 65.3215 44.9475 64.4458 42.931C66.929 44.6743 71.8954 46.9509 78.8484 48.408C79.0052 48.447 80.469 48.9154 81.0441 50.5936L81.0833 50.6846C81.3186 51.3611 81.5538 52.0767 81.8544 52.7661C81.3708 52.7922 80.6781 52.8442 79.8156 52.8442Z" fill="white"></path>
<path d="M124.435 52.2847C124.435 51.7123 124.134 51.192 123.598 50.7626C123.389 50.5935 123.141 50.4764 122.867 50.4114C124.474 49.1885 127.781 47.107 133.048 45.702C134.694 45.2597 136.197 45.0515 137.622 45.0515C139.504 45.0515 141.282 45.4158 143.177 46.1963C134.08 48.3559 126.029 51.7904 124.997 52.2457C124.958 52.2457 124.932 52.2457 124.892 52.2457C124.749 52.2457 124.592 52.2587 124.435 52.2847Z" fill="white"></path>
<path d="M149.672 50.8278C148.365 50.8278 147.32 50.7237 146.705 50.6456C147.176 50.4245 147.673 50.1643 148.038 49.8911L148.169 49.787C148.705 49.3967 149.385 48.9024 149.764 47.7315C154.116 47.4583 157.383 46.9119 160.899 45.0386C160.441 46.1834 159.174 48.7202 156.769 49.6569C154.233 50.6196 151.515 50.8278 149.672 50.8278Z" fill="white"></path>
<path d="M91.1468 61.3784C91.173 60.4937 92.5453 59.8303 92.5453 59.8303L91.931 59.466C91.3429 59.1278 91.3298 58.8676 91.3429 58.7895C91.3559 58.6724 91.4997 58.5553 91.7219 58.4643C92.5583 58.152 94.2704 57.9439 94.2835 57.9439L94.558 57.9049L94.3619 57.7097C93.1726 56.5779 93.3425 56.2657 93.4732 56.0185L93.4863 55.9795C93.617 55.7583 93.9306 55.6542 94.4534 55.6542C94.7932 55.6542 95.1853 55.7063 95.5643 55.7453C95.7473 55.7713 95.9172 55.7843 96.0871 55.7973L96.3223 55.8234L95.8388 54.8737C95.8388 54.8607 95.5512 54.3013 95.9041 53.898C96.061 53.7158 96.5576 53.5987 97.1588 53.5987C97.3156 53.5987 97.4725 53.6118 97.6162 53.6248L98.2566 53.7028L98.2044 53.5207C98.2044 53.5207 98.0475 52.8312 98.6749 51.9466L99.1584 51.3481L98.7925 51.4262C98.7664 51.4262 98.0998 51.5823 97.76 51.7904C97.5378 51.9335 97.1719 52.1937 97.0281 52.4409C96.9236 52.4409 96.819 52.4279 96.7014 52.4279C96.1917 52.4279 95.4467 52.4929 94.9501 53.0654C94.6233 53.4426 94.4665 53.911 94.4926 54.4183C94.4665 54.4183 94.4273 54.4183 94.4011 54.4183C93.813 54.4183 93.0288 54.5484 92.5322 55.1599C88.7943 53.0133 84.5467 52.6751 83.2005 52.623C82.8346 51.8555 82.5601 51.0359 82.2857 50.2423L82.2465 50.1513C82.0896 49.7089 81.8805 49.2926 81.6191 48.9154C87.0169 49.9691 88.2323 50.3204 88.2846 50.3334C90.0359 50.7627 91.3298 51.205 92.9635 51.8165L94.3489 52.3368L94.0352 51.9596C94.0221 51.9466 93.6562 51.4912 93.3294 51.205C92.6498 50.5415 90.8462 49.735 88.6113 49.1105C88.4676 49.0715 86.9646 48.6422 79.7502 47.2632C79.5411 47.2241 78.9399 47.094 78.9399 47.094L78.8484 47.068C70.3794 45.2857 65.7397 42.1765 65.5436 42.0464C63.9753 40.9016 63.0081 39.7697 62.6683 38.6639C65.1646 39.4315 69.8043 40.3682 69.8435 40.3812C71.5948 40.7715 77.9205 42.0464 77.9727 42.0594C81.6453 42.7099 84.7558 42.853 87.5004 42.9701C91.565 43.1522 94.4926 43.2953 96.6883 44.9605C98.0737 45.9362 99.5636 48.5771 99.5767 51.153C99.5897 53.7549 100.962 55.4201 103.04 57.0593C101.25 57.1763 99.5505 58.152 98.2958 59.7522C96.2831 60.6108 95.5643 61.0011 94.009 62.3801L91.1468 61.3784ZM93.2379 47.6014C94.3881 48.1868 95.1592 49.1625 95.6819 49.8C96.44 50.5936 96.6491 50.6066 96.6491 50.6066L96.4138 49.9691C95.9825 48.7983 95.3029 47.3412 93.8914 46.5216C92.4799 45.689 87.6834 45.0776 86.7424 44.9605C84.9257 44.7654 81.7368 44.2059 81.0572 44.2059C81.0441 44.2059 81.0441 44.219 81.0572 44.219C84.4944 46.0663 89.9183 46.0143 93.2379 47.6014Z" fill="white"></path>
<path d="M148.927 46.5086C147.503 46.5086 146.222 46.1313 145.464 45.8451C147.28 44.9215 150.652 43.3603 154.442 42.3326C156.704 41.7212 158.938 41.0447 160.441 40.5373L161.003 40.3552C162.154 39.9649 162.872 39.6657 163.5 39.4055C163.5 39.4055 163.578 39.3665 163.604 39.3665C163.003 40.9926 162.297 42.814 159.932 44.0629C157.083 45.7671 151.881 46.3915 149.241 46.4956C149.136 46.5086 149.032 46.5086 148.927 46.5086Z" fill="white"></path>
<path d="M112.241 51.2571C112.176 50.8408 111.888 50.4895 111.797 50.3725C111.705 50.2554 111.182 49.696 110.503 49.6309C110.215 49.6049 110.045 49.5919 109.666 49.5659L109.183 49.5398C107.588 49.4488 107.314 49.4228 107.157 48.9804C106.647 47.4974 105.236 46.7949 104.556 46.4566C104.491 46.4176 104.425 46.3916 104.373 46.3655C104.386 46.3395 104.439 46.2615 104.439 46.2615L110.516 47.0941C111.836 47.3413 112.751 48.0828 113.234 49.2797C113.326 49.6699 113.352 50.2944 112.437 51.088L112.241 51.2571Z" fill="white"></path>
<path d="M127.023 59.3099C126.892 59.2578 126.382 59.0497 126.069 58.9456C125.729 58.8285 125.337 58.7245 124.84 58.5814L124.683 58.5423C122.697 57.9829 121.429 57.6056 120.488 57.1893C120.279 57.0983 120.07 57.0072 119.874 56.9161C119.612 56.7991 119.377 56.695 119.142 56.5909C118.475 56.3047 117.848 56.0705 116.959 56.0445C116.802 56.0445 116.463 56.0445 116.175 56.0575C117.404 54.9387 118.214 53.3516 118.606 51.3351C118.632 51.218 118.658 51.0879 118.697 50.9448C119.168 48.7723 120.044 44.7133 128.473 43.2563C129.989 43.0221 132.068 42.853 134.263 42.6708C138.785 42.2936 143.909 41.8773 146.771 40.7454L165.826 34.3969C164.95 37.1158 163.121 38.1566 161.605 38.742L160.01 39.3144C159.082 39.6266 156.677 40.4332 154.181 41.1097C149.411 42.3976 145.294 44.5052 144.065 45.1686C141.87 44.219 139.831 43.7766 137.687 43.7766C136.158 43.7766 134.564 43.9978 132.786 44.4661C126.212 46.2094 122.749 48.7332 121.233 50.1252C121.194 50.1122 121.154 50.0862 121.102 50.0602C120.266 49.6179 119.651 49.5528 119.651 49.5528C119.651 49.5528 120.736 51.0749 120.553 52.1677L120.501 52.4669L121.56 51.7514C121.795 51.5953 122.03 51.5172 122.252 51.5172C122.474 51.5172 122.684 51.5953 122.88 51.7384C123.363 52.1027 123.298 52.506 123.036 53.0654C123.01 53.1174 122.605 53.989 122.605 53.989L123.729 53.5857C123.781 53.5727 123.847 53.5467 123.912 53.5207C124.134 53.4296 124.422 53.3255 124.749 53.3255C125.036 53.3255 125.311 53.4166 125.585 53.5987C125.781 53.7288 126.173 54.002 125.428 55.4591L124.997 56.2657L126.095 56.0966C126.212 56.0835 126.382 56.0445 126.591 56.0445C127.075 56.0445 127.402 56.2136 127.585 56.5519C127.663 56.695 127.676 56.7861 127.65 56.8901C127.598 57.1113 127.362 57.3455 126.983 57.5276L126.513 57.7618C126.513 57.7618 127.362 58.2821 128.055 59.0627C127.964 59.0887 127.859 59.1147 127.755 59.1408C127.467 59.2318 127.219 59.2839 127.023 59.3099Z" fill="white"></path>
<path d="M112.646 46.7948C111.836 46.2224 111.052 46.0533 110.751 46.0143L104.896 45.3508C105.484 44.5962 108.111 43.8157 110.189 43.8157C110.856 43.8157 111.405 43.8937 111.849 44.0368C112.646 44.3621 113.156 44.8694 113.352 45.5459C113.417 45.7671 113.365 46.4826 112.908 46.7298C112.816 46.7558 112.738 46.7818 112.646 46.7948Z" fill="white"></path>
<path d="M104.465 69.2881C104.556 68.9889 104.713 68.5336 105.001 68.1563L105.157 67.9351L104.883 67.9481C104.752 67.9611 104.622 67.9611 104.491 67.9611C103.406 67.9611 102.766 67.701 102.269 67.0635C101.929 66.5952 101.838 66.0097 102.034 65.5024C102.191 65.06 102.543 64.6177 102.87 64.1884C103.158 63.8111 103.785 62.8224 103.994 62.3931C104.125 62.1329 104.256 61.8597 104.373 61.5605C104.648 61.9248 105.053 62.172 105.615 62.302C105.942 62.3801 106.229 62.4191 106.517 62.4191C107.066 62.4191 107.641 62.289 108.359 61.9898C107.405 62.8354 104.726 63.3688 104.726 63.3688C104.661 63.4469 104.7 63.551 104.791 63.59C104.818 63.603 104.844 63.603 104.857 63.616C105.21 63.7071 105.549 63.7461 105.915 63.7461C107.039 63.7461 108.072 63.3038 109.196 62.7704C111.013 61.8207 113.234 58.8025 113.326 58.6724C113.457 58.4903 113.639 58.3342 113.822 58.2301C113.025 59.6351 113.195 61.1702 113.365 62.7834C113.404 63.1607 113.443 63.5379 113.47 63.9412C113.639 65.5934 113.783 67.0115 113.091 68.2864V68.2994C112.973 68.5986 112.764 69.0669 112.659 69.2621C110.699 68.9238 108.542 68.8978 107.928 68.8978C107.549 68.8978 107.222 68.9108 106.987 68.9238C106.046 68.9759 105.183 69.093 104.465 69.2881Z" fill="white"></path>
<path d="M78.1557 59.8173L77.3977 60.4547C76.4305 61.2093 76.143 60.4157 74.3525 60.3116C75.1366 59.5701 76.0777 59.2188 76.9141 59.2839C77.3193 59.2969 77.829 59.492 78.1557 59.8173Z" fill="white"></path>
<path d="M78.6524 60.3116L78.0381 61.0011C77.3062 61.8858 78.0381 62.159 78.1035 63.8372C78.8223 63.1217 79.1621 62.25 79.136 61.4825C79.1098 61.0922 78.9399 60.6109 78.6524 60.3116Z" fill="white"></path>
<path d="M76.3652 62.3801L75.8555 63.1477C75.2673 64.1364 76.0384 64.2925 76.339 65.9447C76.9402 65.1251 77.1624 64.2275 77.0056 63.4599C76.9402 63.0826 76.705 62.6273 76.3652 62.3801Z" fill="white"></path>
<path d="M74.7184 65.047L74.3263 65.8536C73.882 66.8813 74.64 66.9464 75.1497 68.4945C75.6333 67.6359 75.7248 66.7252 75.4764 66.0097C75.3588 65.6584 75.0713 65.2551 74.7184 65.047Z" fill="white"></path>
<path d="M75.6464 61.9118L75.0975 62.7314C74.3656 63.7202 73.882 63.0437 72.1307 63.4339C72.6796 62.4973 73.4899 61.9118 74.3002 61.7427C74.7054 61.6386 75.2412 61.6777 75.6464 61.9118Z" fill="white"></path>
<path d="M73.8559 64.6567L73.4638 65.5804C72.941 66.7122 72.3137 66.1268 70.6277 66.8684C70.9936 65.8276 71.6863 65.0731 72.4705 64.7348C72.8626 64.5787 73.4115 64.5006 73.8559 64.6567Z" fill="white"></path>
<path d="M73.2677 67.1545L73.699 67.844C74.1957 68.7157 73.5291 68.8458 73.2285 70.2898C72.7188 69.5613 72.5489 68.7677 72.6927 68.1042C72.758 67.766 72.9671 67.3757 73.2677 67.1545Z" fill="white"></path>
<path d="M85.8929 63.8632L85.6838 64.8259C85.4616 66.0357 86.298 65.9056 87.226 67.4538C87.5266 66.413 87.3959 65.4243 86.9646 64.7218C86.7424 64.3575 86.3372 63.9933 85.8929 63.8632Z" fill="white"></path>
<path d="M85.2263 63.668L84.8996 64.5267C84.4421 65.5804 83.8671 65.06 82.338 65.7886C82.6386 64.8259 83.2528 64.1234 83.9586 63.7851C84.3115 63.616 84.8081 63.5379 85.2263 63.668Z" fill="white"></path>
<path d="M84.4422 66.6342L83.9848 67.4407C83.3836 68.4164 82.8738 67.818 81.2663 68.3124C81.7107 67.4017 82.4164 66.7903 83.1745 66.5691C83.5404 66.465 84.0501 66.452 84.4422 66.6342Z" fill="white"></path>
<path d="M82.8216 69.3272L82.2857 70.0427C81.58 70.9143 81.1748 70.2638 79.5542 70.537C80.1031 69.7174 80.8611 69.2231 81.6192 69.093C81.9851 69.041 82.4687 69.106 82.8216 69.3272Z" fill="white"></path>
<path d="M85.1479 66.9724L84.6774 67.844C84.1285 68.9498 84.9649 69.0539 85.4354 70.7842C86.0105 69.8605 86.1673 68.8848 85.9321 68.0782C85.8275 67.6879 85.54 67.2196 85.1479 66.9724Z" fill="white"></path>
<path d="M83.4881 69.7434L82.8477 70.524C82.0766 71.5127 82.8869 71.7989 83.0176 73.6202C83.7757 72.8136 84.1285 71.8509 84.0632 71.0053C84.024 70.589 83.8279 70.0686 83.4881 69.7434Z" fill="white"></path>
<path d="M81.6191 71.5778L80.8088 71.5127C79.8025 71.4737 79.9985 72.1372 78.8484 73.0609C79.724 73.1779 80.5213 72.9568 81.0441 72.5275C81.3185 72.3193 81.5669 71.9421 81.6191 71.5778Z" fill="white"></path>
<path d="M109.327 68.3904C107.392 68.4685 106.922 66.6212 106.791 65.9967C106.791 65.9967 107.301 67.4277 109.314 67.3367C110.947 67.2586 111.405 66.5431 111.862 65.7105C111.849 65.6975 111.797 68.2734 109.327 68.3904Z" fill="white"></path>
<path d="M114.594 65.9578C114.607 65.5024 114.567 64.917 114.567 64.852C114.541 64.5397 114.502 64.2275 114.463 63.8502C114.398 63.1998 114.306 62.3932 114.228 61.2614C114.045 58.4643 115.469 57.4626 115.626 57.3585H115.639H115.652C115.914 57.2805 116.214 57.2415 116.528 57.2415C117.874 57.2415 119.22 57.944 119.377 58.035C120.436 58.6074 121.912 59.0237 123.481 59.4531C124.618 59.7653 125.794 60.1035 126.827 60.4938C127.349 60.4288 127.885 60.3117 128.395 60.1946C128.931 60.0775 129.48 59.9474 130.029 59.8954L137.413 58.9327C138.119 58.8286 138.498 58.4513 138.864 58.1001C139.203 57.7618 139.53 57.4366 140.092 57.3846C140.092 57.3846 140.092 57.3846 140.105 57.3846C140.118 57.3846 140.144 57.3846 140.144 57.3846C140.667 57.3846 141.059 57.0983 141.438 56.8251C141.595 56.7081 141.752 56.604 141.922 56.4999C141.948 56.4869 142.013 56.4479 142.066 56.4479C142.144 56.4479 142.209 56.4999 142.209 56.591C142.157 57.1504 141.765 57.4496 141.347 57.7618C141.033 57.996 140.706 58.3212 140.615 58.4643C141.085 58.4383 143.307 57.8269 143.778 57.6447C144.105 57.5146 144.366 57.4106 144.536 57.4106C144.614 57.4106 144.667 57.4366 144.693 57.4756C144.758 57.5537 144.771 57.6968 144.732 57.9309C144.64 58.4383 144.523 58.8676 143.882 59.362C143.268 59.8433 141.164 60.728 139.36 60.728C139.138 60.728 138.72 60.6629 138.485 60.6759C137.648 60.6889 136.929 60.8581 136.184 61.0272C135.975 61.0792 135.766 61.1313 135.557 61.1703L130.408 62.6794C129.14 63.0176 127.924 63.1868 126.814 63.1868C126.029 63.1868 125.284 63.1087 124.605 62.9396C124.069 62.8355 123.533 62.7314 123.01 62.6273C121.024 62.2241 118.488 61.8208 116.384 61.8208C116.057 61.8208 115.953 62.6534 115.953 62.6534L115.94 62.7184C115.887 63.1737 115.77 64.2275 115.038 65.5675C115.012 65.6065 114.907 65.8277 114.763 66.0098L114.646 66.1659L114.594 65.9578Z" fill="white"></path>
<path d="M103.85 58.139C103.785 58.139 103.72 58.139 103.654 58.139C102.008 58.139 100.492 59.0107 99.1324 60.7149C97.368 61.4564 96.0087 62.3541 94.4012 63.577C94.1659 63.551 92.2447 62.8354 90.3888 62.1459C89.2649 61.7296 88.1017 61.2873 87.213 60.9751C85.9583 60.1035 84.4291 59.5701 83.4881 59.44C83.3182 59.414 83.1222 59.401 82.8869 59.401C81.8937 59.401 80.6651 59.6091 80.2861 59.7912C80.2338 59.8042 80.1423 59.8563 80.1293 59.9604C80.1293 60.0124 80.1423 60.0644 80.1816 60.1035C80.2338 60.1555 80.3122 60.1815 80.456 60.1815C80.5998 60.1815 80.7958 60.1555 81.0311 60.1165C81.3447 60.0774 81.7368 60.0124 82.1289 60.0124C83.2529 60.0124 83.8933 60.4547 84.1678 61.4044C83.7626 61.4825 83.6188 61.5995 83.4751 61.7296C83.3182 61.8727 83.1745 62.0028 82.6517 62.0809L82.521 62.1069H82.5079C82.4164 62.1329 82.3511 62.185 82.3511 62.25C82.338 62.3411 82.4164 62.4191 82.4426 62.4321C82.5602 62.5232 82.7432 62.5752 82.9654 62.5752C83.1875 62.5752 83.4359 62.5232 83.6319 62.4321C83.841 62.3281 84.0893 62.3021 84.3507 62.276C84.7167 62.237 85.1349 62.1329 85.5923 61.8858C86.9516 62.4582 88.2585 63.3038 89.5001 64.4226C90.3366 65.1771 91.2906 66.0488 93.1334 67.0115C93.2511 67.0635 93.421 67.1155 93.617 67.1155C93.9307 67.1155 94.2836 66.9854 94.6887 66.7122C95.8258 66.0488 101.707 62.6663 102.295 62.3671H102.308L102.321 62.3541C103.027 61.6776 103.432 60.2596 103.485 60.0905C103.511 59.9994 103.537 59.8823 103.576 59.7652C103.72 59.2578 103.916 58.5683 103.942 58.2041L103.955 58.139H103.85Z" fill="white"></path>
<path d="M116.266 49.1235C115.822 49.5528 115.404 49.6829 115.09 49.6829C114.737 49.6829 114.411 49.5919 114.136 49.4748C114.123 49.6179 114.162 49.8 114.215 49.9301C114.345 50.2684 114.685 50.4635 114.999 50.4635C115.704 50.4635 116.266 49.826 116.266 49.1235Z" fill="white"></path>
<path d="M114.005 48.291C114.58 48.6552 115.077 48.7463 115.495 48.5642C116.044 48.317 116.28 47.6795 116.293 47.6015C116.371 47.0941 116.149 47.016 115.848 46.925C115.587 46.8339 115.273 46.7298 115.247 46.2745C115.247 46.1054 115.195 46.0013 115.103 45.9493C114.946 45.8452 114.659 45.9233 114.515 45.9883C114.424 46.99 113.901 47.4584 113.522 47.6795L114.005 48.291Z" fill="white"></path>
<path d="M108.242 43.1653C108.242 43.1653 107.549 42.853 106.791 42.788C105.863 42.7099 105.249 42.9051 104.896 43.0742C104.321 43.3474 104.046 44.0629 104.347 44.5052C105.223 43.7897 106.66 43.3734 108.242 43.1653Z" fill="white"></path>
<path d="M113.927 56.695C113.613 56.591 113.417 56.5389 113.13 56.4218C111.052 55.6022 111.849 53.5858 111.561 51.9856C111.522 51.6604 111.431 51.3352 111.013 51.4652C110.817 51.5173 110.072 52.3239 108.895 51.9076C109.353 51.7645 109.771 51.6214 110.058 51.4002C110.451 51.101 110.581 50.7107 110.385 50.4375C110.268 50.2424 109.993 50.2033 109.771 50.2684C109.575 50.3334 109.353 50.6457 109.418 50.9579C109.418 50.9579 108.948 51.0099 108.451 50.5416C108.242 50.3464 107.889 50.2814 107.484 50.2944C106.909 50.3334 106.543 50.1903 106.334 49.5529C106.085 48.4861 104.948 47.6275 104.033 47.1461C103.798 47.7446 103.576 48.1478 103.589 48.8634C103.654 49.3447 104.517 49.2536 104.831 49.3057C105.719 49.5268 104.256 50.1513 104.269 50.5806C104.177 50.4505 104.112 50.1903 104.243 50.0732C104.465 49.761 103.994 49.787 103.877 49.6309C103.85 50.4765 103.184 51.6604 103.236 51.9596C103.249 52.0377 103.994 52.0897 103.994 52.0897C104.19 52.2718 104.06 52.6231 104.086 52.8703C104.086 52.8833 104.112 52.8963 104.125 52.8963C104.177 52.9223 104.439 52.9483 104.517 52.9483C104.582 52.9613 104.648 53.0134 104.648 53.0784C104.648 53.1565 104.595 53.2085 104.517 53.2085C104.517 53.2085 104.412 53.2085 104.295 53.1825C104.347 53.4036 104.334 53.6378 104.648 53.7679C104.805 53.9891 104.582 54.6005 104.988 54.7046C106.111 54.9648 107.575 53.7029 108.791 52.8573C108.608 53.5728 107.601 54.3403 107.353 55.0558C107.353 55.0558 107.314 56.2007 107.066 56.9422C106.765 57.8399 105.798 57.6707 105.079 58.035C105.079 58.087 105.066 58.1521 105.053 58.2301C105.04 58.3342 105.014 58.4513 105.014 58.5814V58.6464C105.014 58.6725 105.001 58.7115 105.001 58.7635C104.948 59.2319 104.805 60.4938 105.615 60.9231C105.876 61.0532 106.177 61.1182 106.53 61.1182C107.34 61.1182 108.359 60.767 109.457 60.1035C110.634 59.401 111.248 58.8546 111.914 58.2692C112.398 57.8138 112.973 57.3065 113.927 56.695Z" fill="white"></path>
<path d="M132.486 63.3558C133.662 64.5527 134.224 64.8259 135.792 65.3593C134.42 65.7626 132.42 65.8016 131.14 63.7331C131.741 63.59 132.486 63.3558 132.486 63.3558Z" fill="white"></path>
<path d="M101.433 74.0496C100.361 73.0608 100.439 71.0574 100.465 69.8475C99.6028 71.1485 99.0539 71.3436 97.9038 71.6298C97.5509 70.2898 98.2175 69.106 98.7664 68.5075C97.9822 68.6637 96.5838 68.9889 95.4206 68.6246C94.8586 68.4165 94.8325 68.0002 94.8325 68.0002C94.8325 68.0002 100.531 64.6698 101.184 64.2665C101.027 64.5267 100.975 64.6047 100.962 64.6438C100.086 66.1398 100.818 67.8701 102.021 68.6767C102.4 68.9369 102.648 69.0409 103.079 69.171C102.243 71.5518 101.602 73.5162 101.433 74.0496Z" fill="white"></path>
<path d="M136.55 62.172C137.674 63.1087 138.798 64.0063 140.824 64.4877C140.092 64.6828 138.289 64.904 137.204 64.7479C135.165 64.4096 134.276 63.603 133.688 63.0176C134.838 62.6013 136.211 62.2501 136.55 62.172Z" fill="white"></path>
<path d="M142.144 61.2614C143.543 62.146 144.902 62.7704 146.705 62.8615C146.536 63.0176 143.804 64.2275 141.752 63.7331C140.027 63.2778 138.981 62.4582 138.171 61.7947C138.798 61.5215 140.432 62.133 142.144 61.2614Z" fill="white"></path>
<path d="M145.934 58.8416C147.071 59.3229 147.307 59.5831 150.221 59.5961C150.286 59.5961 150.3 59.6742 150.26 59.7132C149.62 60.6499 148.221 62.289 145.974 61.5996C145.124 61.3914 144.405 61.0922 143.477 60.5978C145.189 60.1425 145.764 59.2188 145.934 58.8416Z" fill="white"></path>
<path d="M108.203 133.854C130.983 133.854 134.904 152.08 158.272 152.08C172.426 152.08 172.701 146.096 172.701 146.096L170.309 133.867C173.406 130.185 186.084 130.615 186.084 130.615L175.092 116.434C164.872 117.085 156.481 119.713 156.481 124.123V137.262C142.706 137.262 133.505 119.114 108.216 119.114C82.9261 119.114 73.7121 137.262 59.9499 137.262V124.123C59.9499 119.726 51.5462 117.098 41.3389 116.434L30.3474 130.615C30.3474 130.615 43.0379 130.172 46.1223 133.867L43.7306 146.096C43.7306 146.096 44.0051 152.08 58.1594 152.08C81.5015 152.08 85.4354 133.854 108.203 133.854Z" fill="#000F46"></path>
<path d="M157.71 127.141V137.262C162.82 137.171 167.002 135.975 168.388 134.231C168.78 133.737 168.91 133.217 168.806 132.657C168.675 132.111 168.152 131.148 162.729 129.652C160.376 129.001 158.716 128.169 157.71 127.141Z" fill="white"></path>
<path d="M164.571 119.27C167.211 118.49 170.962 117.969 174.36 117.631L183.522 129.496C176.765 129.756 172.478 130.563 170.021 132.423C169.629 130.953 168.27 129.886 163.042 128.442C160.311 127.688 157.697 126.543 157.697 124.058C157.71 122.211 160.481 120.493 164.571 119.27Z" fill="white"></path>
<path d="M171.433 146.122C171.25 146.85 169.747 150.844 158.272 150.844C146.901 150.844 140.432 146.473 133.584 141.855C127.101 137.471 120.396 132.956 109.444 132.631H106.961C96.0087 132.956 89.3041 137.471 82.8216 141.855C75.9731 146.473 69.5037 150.844 58.1332 150.844C46.6582 150.844 45.1421 146.837 44.9722 146.122L47.1287 135.09C49.1414 137.484 54.3954 138.407 58.6952 138.485H59.9368C66.1579 138.485 71.3073 135.129 77.267 131.252C84.8866 126.295 93.4994 120.688 106.961 120.363H109.444C122.919 120.688 131.519 126.295 139.138 131.252C145.098 135.129 150.247 138.485 156.468 138.485H157.71C162.01 138.407 167.264 137.484 169.276 135.09L171.433 146.122Z" fill="white"></path>
<path d="M167.839 145.354C167.839 145.354 168.152 146.746 168.1 146.824C168.1 146.824 167.93 146.889 167.865 146.85C167.813 146.733 167.773 146.707 167.486 146.759C167.486 146.759 163.16 147.722 163.081 147.67C163.081 147.67 163.029 147.501 163.081 147.423C163.382 147.319 163.382 147.254 163.356 147.111L162.167 141.79C162.14 141.647 162.114 141.595 161.696 141.582C161.696 141.582 161.657 141.412 161.709 141.334L165.905 140.411C166.179 140.346 166.205 140.294 166.257 140.111C166.257 140.111 166.414 140.046 166.493 140.098C166.493 140.098 166.819 141.529 166.767 141.608C166.767 141.608 166.597 141.647 166.519 141.608C166.466 141.516 166.427 141.477 166.153 141.542C166.153 141.542 163.63 142.102 163.617 142.037C163.617 142.05 163.892 143.312 163.892 143.507C163.892 143.52 163.892 143.533 163.879 143.533C163.892 143.533 165.408 143.195 165.408 143.195C165.695 143.13 165.708 143.104 165.761 142.921C165.761 142.921 165.944 142.856 166.009 142.882C166.009 142.882 166.362 144.313 166.31 144.392C166.31 144.392 166.127 144.457 166.061 144.444C166.022 144.353 165.944 144.287 165.656 144.339C165.656 144.339 164.31 144.639 164.179 144.665C164.219 144.847 164.493 146.057 164.48 146.239C164.48 146.252 164.467 146.265 164.467 146.265C164.48 146.265 167.211 145.666 167.211 145.666C167.499 145.601 167.512 145.575 167.564 145.38C167.564 145.38 167.734 145.302 167.813 145.341L167.839 145.354Z" fill="#000F46"></path>
<path d="M141.268 141.751C141.268 141.751 141.425 141.829 141.451 141.92C141.451 141.92 140.589 143.234 140.497 143.247C140.497 143.247 140.354 143.169 140.327 143.091C140.38 142.973 140.38 142.895 140.131 142.739C140.131 142.739 136.563 140.411 136.55 140.32C136.55 140.32 136.642 140.163 136.72 140.137C136.955 140.255 137.021 140.229 137.099 140.098L140.092 135.558C140.184 135.428 140.197 135.363 139.961 135.09C139.961 135.09 140.04 134.934 140.131 134.921C140.131 134.921 141.83 136.026 141.844 136.118C141.844 136.118 141.778 136.274 141.687 136.3C141.386 136.144 141.321 136.17 141.229 136.3C141.229 136.3 138.589 140.307 138.511 140.307L140.759 141.777C140.994 141.933 141.046 141.92 141.268 141.751Z" fill="#000F46"></path>
<path d="M97.8646 130.602C97.8646 130.602 97.7731 130.758 97.7078 130.771C97.6293 130.732 97.5771 130.706 97.5248 130.719C97.1719 130.966 97.0543 131.772 95.6297 132.189C93.9307 132.709 92.3493 131.772 91.7873 129.925C91.0946 127.675 92.297 126.204 93.8 125.736C95.0677 125.385 95.5905 125.918 95.7473 125.749C95.865 125.619 95.9303 125.515 96.0087 125.528L96.1525 125.541L96.1133 125.723C96.1133 125.723 95.7604 127.362 95.6951 127.414L95.5513 127.388C95.5513 127.388 95.5251 127.193 95.3683 127.024C95.1331 126.777 94.5972 126.699 94.1659 126.829C93.6301 126.985 92.4407 127.44 93.0811 129.509C93.421 130.498 94.1006 131.369 95.3945 131.031C95.7735 130.914 96.1263 130.641 96.2832 130.341C96.2832 130.341 96.44 130.016 96.257 129.626C96.257 129.626 96.3355 129.496 96.4139 129.496L97.8646 130.602Z" fill="#000F46"></path>
<path d="M59.8714 142.232C59.3617 141.699 58.6429 141.399 57.8326 141.373C57.0092 141.36 56.2904 141.621 55.7545 142.128C55.1272 142.713 54.7743 143.611 54.7482 144.639C54.6959 146.642 55.8722 148.008 57.6758 148.06C58.4991 148.073 59.218 147.826 59.7538 147.306C60.3812 146.72 60.734 145.823 60.7602 144.782C60.7732 143.754 60.4596 142.843 59.8714 142.232ZM59.4009 144.756C59.3879 145.549 59.1788 146.161 58.7997 146.525C58.5253 146.798 58.1463 146.928 57.7019 146.915C56.6433 146.889 56.0813 146.096 56.1074 144.691C56.1205 143.884 56.3427 143.286 56.7217 142.922C56.9962 142.661 57.3621 142.531 57.8065 142.544C58.2508 142.557 58.6168 142.7 58.8782 142.974C59.231 143.351 59.414 143.962 59.4009 144.756Z" fill="#000F46"></path>
<path d="M158.403 141.686L155.71 141.673C155.645 141.738 155.632 141.907 155.632 141.907C155.893 141.998 155.932 142.063 155.919 142.232L155.906 147.67C155.906 147.839 155.88 147.878 155.658 147.917L155.606 148.151C155.671 148.216 158.128 148.229 158.128 148.229C159.2 148.229 160.023 147.956 160.572 147.41C161.134 146.863 161.409 146.044 161.409 144.964C161.422 142.935 160.298 141.699 158.403 141.686ZM160.062 144.977C160.049 146.577 159.54 147.085 157.919 147.085H157.213C157.279 147.072 157.292 143.208 157.305 142.856C157.409 142.856 157.945 142.869 157.945 142.869C159.553 142.869 160.075 143.39 160.075 144.964V144.977H160.062Z" fill="#000F46"></path>
<path d="M115.456 123.889C115.456 123.889 115.992 124.201 116.07 124.227C116.149 124.253 116.24 124.201 116.319 124.136L116.515 124.292C116.515 124.292 115.404 125.71 115.312 125.723C115.312 125.723 115.156 125.632 115.116 125.567C115.116 125.567 115.142 125.398 115.156 125.359C115.221 125.047 114.62 124.617 113.718 124.513C113.378 124.461 113.117 124.513 112.934 124.656C112.751 124.786 112.712 124.942 112.698 125.099C112.646 125.593 113.287 125.827 114.032 126.087C115.116 126.478 116.463 126.946 116.28 128.494C116.214 128.988 115.953 129.431 115.548 129.756C115.129 130.081 114.371 130.445 113.104 130.263C113.104 130.263 111.862 130.042 110.947 129.431C110.947 129.431 110.921 129.405 110.673 129.574L110.503 129.444L110.542 129.392C110.542 129.392 111.483 127.948 111.575 127.922L111.744 128.013C111.744 128.013 111.731 128.13 111.731 128.169C111.679 128.637 112.79 129.014 113.313 129.079C113.927 129.158 114.358 129.092 114.607 128.897C114.724 128.793 114.842 128.611 114.881 128.364C114.96 127.831 114.254 127.583 113.47 127.297C112.424 126.92 111.13 126.465 111.3 125.099C111.418 124.201 112.189 123.225 113.966 123.446C114.528 123.511 115.038 123.655 115.456 123.889Z" fill="#000F46"></path>
<path d="M126.212 127.102C126.121 127.141 126.055 127.297 126.055 127.297C126.265 127.479 126.252 127.518 126.238 127.544L125.886 127.948L122.095 131.772C122.095 131.772 121.991 131.877 121.873 131.89C121.808 131.903 121.716 131.916 121.638 131.916L121.547 132.124L123.232 132.904L123.324 132.696C123.298 132.683 123.272 132.657 123.246 132.618C123.219 132.579 123.219 132.54 123.232 132.488C123.259 132.449 123.324 132.345 123.324 132.345C123.324 132.345 124.069 131.551 124.095 131.499C124.147 131.538 126.055 132.41 126.055 132.423C126.042 132.514 125.912 133.542 125.912 133.542C125.912 133.542 125.886 133.659 125.873 133.698C125.846 133.737 125.82 133.763 125.768 133.776C125.716 133.776 125.676 133.776 125.65 133.763L125.559 133.971L127.245 134.752L127.336 134.543C127.284 134.478 127.232 134.413 127.206 134.348C127.14 134.257 127.166 134.101 127.166 134.101L127.637 128.754L127.702 128.26C127.715 128.221 127.755 128.143 127.938 128.208C128.016 128.169 128.094 128.013 128.094 128.013C128.081 127.922 126.212 127.102 126.212 127.102ZM126.186 131.421C126.186 131.421 124.971 130.862 124.775 130.771C124.879 130.654 126.304 129.092 126.5 128.884C126.5 128.884 126.199 131.343 126.186 131.421Z" fill="#000F46"></path>
<path d="M146.078 138.55C145.987 138.576 145.921 138.732 145.921 138.732C146.117 138.928 146.104 138.967 146.091 138.98L145.725 139.37C145.725 139.37 141.804 143.052 141.804 143.065C141.804 143.065 141.7 143.169 141.582 143.182C141.504 143.195 141.425 143.195 141.347 143.195L141.242 143.39L142.902 144.222L143.007 144.027C142.981 144.014 142.954 143.988 142.928 143.949C142.902 143.91 142.902 143.871 142.928 143.819C142.954 143.78 143.033 143.689 143.033 143.689C143.033 143.689 143.804 142.921 143.843 142.869C143.895 142.908 145.764 143.845 145.777 143.858C145.764 143.949 145.594 144.977 145.594 144.977C145.594 144.977 145.568 145.094 145.542 145.133C145.516 145.172 145.49 145.198 145.438 145.198C145.385 145.198 145.346 145.198 145.32 145.185L145.215 145.38L146.875 146.213L146.98 146.018C146.928 145.94 146.888 145.875 146.849 145.81C146.797 145.718 146.81 145.562 146.81 145.562L147.463 140.229L147.555 139.734C147.568 139.695 147.607 139.617 147.79 139.695C147.869 139.669 147.947 139.5 147.947 139.5C147.921 139.435 146.078 138.55 146.078 138.55ZM145.908 142.856C145.908 142.856 144.719 142.258 144.523 142.154C144.627 142.037 146.117 140.528 146.313 140.32C146.3 140.333 145.921 142.778 145.908 142.856Z" fill="#000F46"></path>
<path d="M110.058 128.39C110.058 128.39 110.111 129.821 110.045 129.886C110.045 129.886 109.862 129.925 109.797 129.873C109.771 129.756 109.732 129.717 109.444 129.717C109.444 129.717 105.014 129.86 104.948 129.795C104.948 129.795 104.935 129.613 104.987 129.548C105.301 129.496 105.314 129.444 105.314 129.288L105.144 123.837C105.144 123.694 105.131 123.628 104.713 123.537C104.713 123.537 104.713 123.368 104.778 123.303L109.078 123.173C109.366 123.16 109.405 123.108 109.483 122.939C109.483 122.939 109.653 122.913 109.719 122.978C109.719 122.978 109.771 124.448 109.706 124.513C109.706 124.513 109.536 124.526 109.47 124.474C109.444 124.37 109.405 124.331 109.117 124.344C109.117 124.344 106.543 124.422 106.53 124.357C106.53 124.37 106.569 125.658 106.53 125.853C106.53 125.866 106.517 125.879 106.517 125.879C106.53 125.879 108.085 125.827 108.085 125.827C108.372 125.814 108.399 125.801 108.477 125.619C108.477 125.619 108.673 125.58 108.725 125.619C108.725 125.619 108.804 127.089 108.738 127.154C108.738 127.154 108.542 127.18 108.49 127.154C108.464 127.05 108.412 126.972 108.111 126.985C108.111 126.985 106.726 127.024 106.608 127.024C106.621 127.206 106.66 128.442 106.621 128.637C106.621 128.65 106.608 128.65 106.608 128.65C106.621 128.65 109.418 128.559 109.418 128.559C109.706 128.546 109.732 128.52 109.81 128.351C109.81 128.351 109.993 128.299 110.058 128.364V128.39Z" fill="#000F46"></path>
<path d="M64.8118 140.827C64.8118 140.827 65.3999 140.957 65.4914 140.957C65.5698 140.957 65.6482 140.879 65.6874 140.788L65.9227 140.866C65.9227 140.866 65.3345 142.518 65.2561 142.57C65.2561 142.57 65.0732 142.531 65.0209 142.479C65.0209 142.479 64.9947 142.31 64.9947 142.271C64.9555 141.972 64.2628 141.751 63.4003 141.92C63.0735 141.985 62.8513 142.115 62.7206 142.284C62.5899 142.466 62.603 142.622 62.6422 142.765C62.7468 143.247 63.4003 143.26 64.1844 143.273C65.3084 143.299 66.7068 143.325 67.0074 144.808C67.0989 145.276 66.9944 145.784 66.7199 146.2C66.4324 146.629 65.8443 147.202 64.6157 147.41C64.6157 147.41 63.4003 147.579 62.3678 147.306C62.3678 147.306 62.3286 147.293 62.1587 147.514L61.9626 147.449L61.9757 147.384C61.9757 147.384 62.3939 145.758 62.4723 145.706L62.6553 145.745C62.6553 145.745 62.6814 145.862 62.6945 145.901C62.786 146.356 63.9361 146.356 64.4458 146.252C65.034 146.135 65.413 145.94 65.5959 145.68C65.6744 145.549 65.7266 145.341 65.6874 145.094C65.5959 144.574 64.8771 144.561 64.0407 144.535C62.9559 144.509 61.6228 144.483 61.3483 143.156C61.1784 142.284 61.5836 141.152 63.3088 140.814C63.8446 140.749 64.3543 140.736 64.8118 140.827Z" fill="#000F46"></path>
<path d="M78.9268 139.539C78.9268 139.539 79.711 140.736 79.6979 140.827C79.6979 140.827 79.5672 140.957 79.4888 140.944C79.3973 140.853 79.345 140.84 79.1098 140.996C79.1098 140.996 75.398 143.403 75.3066 143.39C75.3066 143.39 75.202 143.247 75.2151 143.156C75.4634 142.948 75.4372 142.896 75.3588 142.765L72.3659 138.199C72.2875 138.069 72.2352 138.03 71.8431 138.16C71.8431 138.16 71.7516 138.017 71.7647 137.926L75.3588 135.597C75.5941 135.441 75.6071 135.376 75.581 135.194C75.581 135.194 75.7117 135.077 75.8032 135.103C75.8032 135.103 76.6135 136.326 76.5874 136.417C76.5874 136.417 76.4436 136.521 76.3652 136.508C76.2868 136.43 76.2345 136.417 75.9862 136.573C75.9862 136.573 73.8297 137.978 73.7905 137.926C73.7905 137.939 74.4962 139.019 74.5616 139.201C74.5616 139.214 74.5616 139.227 74.5616 139.227C74.5747 139.227 75.8816 138.381 75.8816 138.381C76.1299 138.225 76.1299 138.199 76.1038 138.004C76.1038 138.004 76.2476 137.874 76.3129 137.874C76.3129 137.874 77.1493 139.084 77.1232 139.175C77.1232 139.175 76.9664 139.305 76.9141 139.305C76.8357 139.227 76.7442 139.201 76.5089 139.357C76.5089 139.357 75.3458 140.099 75.2412 140.177C75.3458 140.333 76.0254 141.373 76.0907 141.543C76.0907 141.556 76.0907 141.569 76.0907 141.569C76.1038 141.569 78.4432 140.046 78.4432 140.046C78.6916 139.89 78.6916 139.851 78.6785 139.656C78.6785 139.656 78.8092 139.526 78.9007 139.539H78.9268Z" fill="#000F46"></path>
<path d="M84.2984 130.159C84.2723 130.25 84.3507 130.393 84.3507 130.393C84.6252 130.341 84.6513 130.38 84.6513 130.393L84.7689 130.914L85.527 136.235C85.527 136.235 85.5531 136.391 85.5008 136.482C85.4616 136.547 85.4224 136.612 85.3701 136.69L85.4747 136.885L87.1214 136.013L87.0169 135.818C86.9907 135.831 86.9515 135.831 86.9123 135.831C86.8601 135.831 86.8208 135.805 86.8078 135.766C86.7816 135.727 86.7555 135.61 86.7555 135.61C86.7555 135.61 86.5725 134.543 86.5464 134.478C86.5987 134.465 88.4676 133.49 88.4676 133.477C88.533 133.555 89.2779 134.27 89.2779 134.27C89.2779 134.27 89.3563 134.361 89.3825 134.4C89.4086 134.439 89.4086 134.491 89.3825 134.53C89.3563 134.569 89.3302 134.595 89.3041 134.608L89.4086 134.804L91.0554 133.932L90.9508 133.737C90.8593 133.737 90.7809 133.737 90.7156 133.724C90.611 133.711 90.4934 133.607 90.4934 133.607L86.5072 129.99L86.1543 129.639C86.1282 129.6 86.0889 129.522 86.2589 129.418C86.285 129.327 86.1935 129.171 86.1935 129.171C86.0889 129.184 84.2984 130.159 84.2984 130.159ZM87.7357 132.787C87.7357 132.787 86.5595 133.399 86.3634 133.516C86.3373 133.36 85.9452 131.278 85.8929 131.005C85.8929 131.005 87.6834 132.735 87.7357 132.787Z" fill="#000F46"></path>
<path d="M121.926 131.382C121.926 131.382 121.769 131.46 121.703 131.434C121.664 131.356 121.638 131.304 121.573 131.291C121.141 131.304 120.592 131.903 119.181 131.473C117.482 130.979 116.672 129.327 117.221 127.466C117.887 125.203 119.717 124.643 121.22 125.086C122.474 125.489 122.618 126.217 122.84 126.165C123.01 126.126 123.128 126.074 123.18 126.126L123.298 126.217L123.167 126.348C123.167 126.348 121.965 127.531 121.886 127.531L121.782 127.44C121.782 127.44 121.873 127.271 121.834 127.037C121.769 126.699 121.364 126.348 120.932 126.217C120.396 126.061 119.155 125.775 118.541 127.87C118.279 128.884 118.371 129.977 119.625 130.419C120.004 130.524 120.449 130.498 120.749 130.328C120.749 130.328 121.063 130.146 121.128 129.717C121.128 129.717 121.272 129.652 121.324 129.691L121.926 131.382Z" fill="#000F46"></path>
<path d="M52.5526 140.567L49.625 140.007C49.5466 140.059 49.5596 140.228 49.5596 140.228C49.8341 140.385 49.8472 140.45 49.808 140.606L48.7624 145.953C48.7363 146.109 48.684 146.174 48.4487 146.161C48.3703 146.213 48.3572 146.421 48.3572 146.421C48.3703 146.434 50.3177 146.798 50.3177 146.798L50.3569 146.577C50.1347 146.46 50.0955 146.395 50.0955 146.291C50.0955 146.265 50.0955 146.239 50.1086 146.213C50.1086 146.213 50.5268 144.105 50.5268 144.079C50.5268 144.144 51.8076 144.392 51.8076 144.392C53.4544 144.717 54.2385 143.832 54.4215 142.908C54.6045 141.985 54.2124 140.879 52.5526 140.567ZM51.8076 143.208C51.8076 143.208 50.749 142.999 50.7359 142.999C50.8012 142.804 50.9973 141.634 51.0365 141.451C51.1541 141.477 52.1082 141.66 52.1082 141.66C52.9054 141.829 53.193 142.089 53.0884 142.661C52.9839 143.221 52.631 143.364 51.8076 143.208Z" fill="#000F46"></path>
<path d="M84.8996 136.833C84.6643 136.872 84.5728 136.833 84.1938 136.612L82.3249 135.558C83.0699 134.752 82.9653 133.854 82.534 133.203C82.0112 132.41 80.9657 131.902 79.5411 132.813L77.0448 134.426C77.0317 134.517 77.1624 134.634 77.1624 134.634C77.463 134.556 77.5153 134.595 77.6068 134.726L80.5866 139.292C80.6781 139.422 80.6912 139.513 80.4952 139.656C80.4821 139.747 80.6128 139.903 80.6128 139.903C80.6389 139.903 82.2857 138.823 82.2857 138.823L82.1419 138.589C81.9067 138.654 81.8282 138.641 81.7498 138.563C81.7368 138.537 81.7106 138.524 81.6975 138.498C81.6975 138.498 80.5736 136.781 80.5605 136.755C80.5605 136.755 80.9134 136.534 81.214 136.339C81.5277 136.547 83.3835 137.601 83.4097 137.614C83.4619 137.653 83.3312 137.783 83.292 137.809C83.279 137.848 83.4358 138.056 83.4358 138.056C83.475 138.069 85.0434 137.028 85.0434 137.028C85.0172 136.989 84.8996 136.833 84.8996 136.833ZM79.0836 134.504C79.1882 134.439 79.9985 133.906 79.9985 133.906C80.6912 133.477 81.0702 133.464 81.397 133.945C81.7237 134.426 81.5669 134.778 80.8611 135.22C80.8611 135.22 79.9593 135.805 79.9462 135.818C79.8548 135.649 79.1882 134.66 79.0836 134.504Z" fill="#000F46"></path>
<path d="M104.046 129.769C103.811 129.717 103.746 129.639 103.471 129.288L102.151 127.596C103.145 127.141 103.393 126.269 103.262 125.515C103.092 124.591 102.321 123.707 100.661 124.006L97.7339 124.539C97.6816 124.617 97.76 124.773 97.76 124.773C98.0737 124.825 98.0998 124.877 98.139 125.034L99.1192 130.393C99.1454 130.55 99.1323 130.628 98.897 130.693C98.8448 130.771 98.897 130.966 98.897 130.966C98.9232 130.979 100.857 130.615 100.857 130.615L100.805 130.341C100.557 130.302 100.492 130.263 100.452 130.172C100.439 130.146 100.439 130.12 100.426 130.094C100.426 130.094 100.06 128.078 100.047 128.052C100.047 128.052 100.452 127.987 100.818 127.922C101.027 128.234 102.334 129.925 102.347 129.938C102.387 129.99 102.217 130.055 102.164 130.068C102.138 130.094 102.204 130.341 102.204 130.341C102.23 130.367 104.086 130.016 104.086 130.016C104.099 129.951 104.046 129.769 104.046 129.769ZM99.5767 125.385C99.6943 125.359 100.648 125.19 100.648 125.19C101.446 125.06 101.812 125.19 101.916 125.762C102.021 126.334 101.746 126.595 100.923 126.738C100.923 126.738 99.8642 126.933 99.8511 126.933C99.8511 126.738 99.6159 125.567 99.5767 125.385Z" fill="#000F46"></path>
<path d="M71.8954 144.561C71.9608 144.717 72.0131 144.743 72.2875 144.717L72.3921 144.925L72.3267 144.951C72.3267 144.951 70.8107 145.64 70.6669 145.692C70.6669 145.692 70.5623 145.51 70.5754 145.458C70.6146 145.432 70.693 145.341 70.693 145.276C70.693 145.237 70.68 145.185 70.6408 145.12C70.6408 145.12 68.7065 140.957 68.628 140.723L67.295 141.347C67.0858 141.451 67.0336 141.503 67.0336 141.686C67.0336 141.712 67.0336 141.751 67.0466 141.79C67.0466 141.79 66.9029 141.907 66.8114 141.868C66.8114 141.868 66.1448 140.45 66.171 140.359C66.171 140.359 66.3017 140.268 66.3801 140.281C66.4585 140.385 66.5108 140.411 66.7722 140.281L70.5623 138.563C70.8107 138.446 70.8629 138.433 70.8629 138.225C70.8629 138.225 70.9675 138.147 71.059 138.121C71.059 138.121 71.7778 139.578 71.7517 139.656C71.7517 139.656 71.6079 139.76 71.5295 139.734C71.4249 139.578 71.3596 139.474 71.1113 139.591C71.1113 139.591 69.9219 140.15 69.8696 140.15C69.9089 140.189 71.8954 144.561 71.8954 144.561Z" fill="#000F46"></path>
<path d="M150.391 147.384C148.757 146.928 148.156 145.888 148.574 144.313L149.528 140.853C149.568 140.697 149.489 140.567 149.28 140.476C149.28 140.385 149.332 140.229 149.332 140.229C149.332 140.229 150.665 140.58 151.254 140.762C151.254 140.762 151.214 140.944 151.149 140.996C150.94 140.97 150.888 141.048 150.848 141.204L149.894 144.691C149.79 145.081 149.816 145.432 149.973 145.705C150.117 145.966 150.365 146.148 150.718 146.252C151.071 146.343 151.384 146.304 151.646 146.174C151.92 146.018 152.129 145.731 152.247 145.341L153.253 141.868C153.292 141.712 153.292 141.621 153.109 141.529C153.07 141.451 153.136 141.269 153.136 141.269C153.724 141.425 155.057 141.803 155.057 141.803C155.057 141.803 155.031 141.972 154.978 142.037C154.756 142.011 154.612 142.089 154.573 142.232L153.567 145.679C153.083 147.28 152.025 147.839 150.391 147.384Z" fill="#000F46"></path>
<path d="M130.46 136.742C130.434 136.716 130.395 136.703 130.368 136.677C130.368 136.677 131.166 132.436 131.375 131.72C131.388 131.681 131.388 131.642 131.401 131.603C131.127 132.046 129.062 135.285 129.062 135.285C129.035 135.311 129.022 135.35 129.022 135.389C129.022 135.441 129.062 135.519 129.179 135.649L129.062 135.844C129.062 135.844 127.637 134.947 127.545 134.882C127.545 134.882 127.637 134.713 127.689 134.7C127.807 134.765 127.938 134.7 128.003 134.608L131.009 129.886C131.061 129.795 131.074 129.73 130.93 129.548C130.93 129.548 130.983 129.379 131.087 129.353C131.087 129.353 133.009 130.55 133.009 130.576C133.009 130.576 132.917 130.719 132.852 130.745C132.721 130.719 132.656 130.81 132.63 130.836C132.564 130.94 131.885 134.517 131.871 134.543C131.898 134.53 134.851 132.384 134.93 132.293C134.956 132.267 134.995 132.163 134.917 132.059C134.917 131.981 135.008 131.837 135.008 131.837C135.034 131.824 136.929 133.047 136.929 133.047C136.956 133.138 136.825 133.268 136.825 133.268C136.603 133.216 136.537 133.255 136.485 133.347L133.479 138.069C133.414 138.173 133.427 138.316 133.531 138.394C133.544 138.446 133.427 138.602 133.427 138.602C133.322 138.55 131.898 137.64 131.898 137.64L132.028 137.445C132.198 137.497 132.29 137.497 132.329 137.471C132.368 137.458 132.381 137.432 132.407 137.392C132.407 137.392 134.472 134.153 134.76 133.711C134.734 133.737 134.695 133.763 134.655 133.789C134.106 134.283 130.578 136.807 130.578 136.807C130.525 136.794 130.499 136.768 130.46 136.742Z" fill="#000F46"></path>
<path d="M58.6952 127.141V137.262C53.585 137.171 49.4028 135.975 48.0174 134.231C47.6253 133.737 47.4947 133.217 47.5992 132.657C47.7299 132.111 48.2527 131.148 53.6765 129.652C56.0421 129.001 57.6889 128.169 58.6952 127.141Z" fill="white"></path>
<path d="M51.8337 119.27C49.1936 118.49 45.4427 117.969 42.0446 117.631L32.8829 129.496C39.6398 129.756 43.9266 130.563 46.3837 132.423C46.7758 130.953 48.135 129.886 53.3628 128.442C56.0943 127.688 58.7083 126.543 58.7083 124.058C58.6952 122.211 55.9244 120.493 51.8337 119.27Z" fill="white"></path>
<path d="M543.927 82.7399H200.761V84.6783H543.927V82.7399Z" fill="#000F46"></path>
<path d="M236.219 103.893C236.219 103.893 223.933 129.561 222.822 131.876C222.6 131.434 209.374 104.244 209.374 104.244C208.746 102.996 208.433 102.644 207.923 102.644C207.596 102.644 207.165 102.891 206.956 104.036L202.042 136.261C201.78 138.082 201.336 139.825 200.107 140.059L198.644 140.215C198.252 140.242 197.729 140.215 197.729 140.684C197.729 141.347 198.474 141.347 198.748 141.347L201.807 141.256L203.662 141.191L205.257 141.243L208.877 141.347C209.518 141.347 210.197 141.295 210.197 140.684C210.197 140.385 209.949 140.268 209.321 140.215L207.27 139.968C206.329 139.747 205.871 139.266 205.871 138.511L206.015 136.209C206.015 136.209 208.276 118.997 208.563 116.786C208.982 117.449 210.981 121.69 210.981 121.69L213.726 127.544C214.314 128.91 218.17 136.352 219.437 138.771L219.581 139.045C220.339 140.463 220.797 141.308 221.28 141.308C221.816 141.308 222.077 140.814 223.227 138.472L234.049 116.044C234.049 116.239 237.003 137.744 237.003 137.744C237.068 138.186 237.094 138.537 237.094 138.823C237.094 139.422 236.977 139.695 236.846 139.747C236.506 139.89 236.219 140.072 236.219 140.411C236.219 140.853 236.741 140.983 237.774 141.074C239.734 141.217 246.57 141.373 247.863 141.373C248.778 141.373 249.275 141.139 249.275 140.71C249.275 140.241 248.648 140.241 248.347 140.241C247.667 140.241 246.713 140.189 245.302 139.747C243.851 139.318 243.381 137.822 242.962 134.856L238.44 104.309C238.284 103.204 237.957 102.67 237.421 102.67C236.898 102.644 236.611 103.113 236.219 103.893Z" fill="#000F46"></path>
<path d="M294.208 103.815L291.581 103.88L289.059 103.828L284.772 103.737C284.184 103.737 283.556 103.776 283.556 104.309C283.556 104.869 284.04 104.817 284.524 104.869L286.131 105.012C287.739 105.155 288.078 106.157 288.17 107.718C288.274 109.292 288.274 110.658 288.274 118.191V126.894C288.274 131.421 288.274 135.337 288.026 137.405C287.804 139.006 287.53 139.851 286.68 140.02L284.916 140.215C284.432 140.255 284.001 140.268 284.001 140.736C284.001 141.347 284.837 141.347 285.112 141.347L288.536 141.243C288.549 141.243 291.372 141.191 291.372 141.191L299.122 141.386L305.814 141.49C308.428 141.49 308.741 141.243 309.068 140.059C309.473 138.602 309.813 134.921 309.813 134.348C309.813 133.88 309.813 133.386 309.29 133.386C308.715 133.386 308.65 133.932 308.624 134.231C308.532 135.155 307.944 136.508 307.369 137.119C306.206 138.368 304.428 138.459 301.658 138.459C297.685 138.459 296.508 138.082 295.737 137.405C294.744 136.547 294.744 133.112 294.744 126.868V118.165C294.744 110.632 294.744 109.279 294.848 107.692C294.953 105.897 295.384 105.207 296.587 104.986L298.495 104.843C299.018 104.843 299.514 104.778 299.514 104.283C299.514 103.789 298.952 103.711 298.351 103.711L294.208 103.815Z" fill="#000F46"></path>
<path d="M325.862 138.42C324.346 137.809 324.203 137.041 324.203 133.789V122.08C324.203 121.872 324.268 121.859 324.372 121.859L326.503 121.911C328.385 122.002 329.522 122.328 330.554 123.069C334.854 126.061 335.325 130.875 335.325 132.8C335.325 138.706 330.424 139.006 329.443 139.006C328.319 139.006 327.195 138.967 325.862 138.42ZM326.163 106.001C330.594 106.001 332.253 110.619 332.253 113.533C332.253 115.849 331.561 117.631 330.267 118.685C329.404 119.439 328.241 119.596 326.777 119.596L324.477 119.439C324.32 119.4 324.229 119.361 324.229 119.01V106.807C324.229 106.287 324.32 106.157 324.582 106.092C324.569 106.092 326.163 106.001 326.163 106.001ZM324.529 103.789L320.948 103.88L319.04 103.828L314.191 103.724C313.603 103.724 312.976 103.763 312.976 104.297C312.976 104.856 313.368 104.804 313.943 104.856L315.851 104.999C317.616 105.168 317.798 106.144 317.89 107.705C317.995 109.279 317.995 110.645 317.995 118.178V126.881C317.995 131.408 317.995 135.324 317.746 137.392C317.563 138.706 317.328 139.812 316.4 140.007L314.636 140.203C314.152 140.229 313.721 140.255 313.721 140.723C313.721 141.334 314.557 141.334 314.832 141.334L318.256 141.23L321.079 141.178L324.791 141.321C324.804 141.321 326.725 141.412 326.725 141.412L328.267 141.477C337.507 141.477 341.637 136 341.637 130.589C341.637 124.995 337.063 121.417 332.711 119.869C335.691 117.475 337.664 115.068 337.664 111.27C337.664 109.5 336.893 103.737 326.973 103.737L324.529 103.789Z" fill="#000F46"></path>
<path d="M353.857 121.001C353.857 107.653 361.438 105.663 365.947 105.663C374.442 105.663 380.375 112.987 380.375 123.472C380.375 137.77 372.403 139.318 368.979 139.318C360.065 139.305 353.857 131.772 353.857 121.001ZM346.761 122.523C346.761 131.916 353.06 142.011 366.888 142.011C379.055 142.011 387.564 133.633 387.564 121.625C387.564 110.151 379.826 103.022 367.384 103.022C353.217 103.035 346.761 113.143 346.761 122.523Z" fill="#000F46"></path>
<path d="M424.42 103.828L417.271 103.724C416.709 103.724 416.107 103.763 416.107 104.297C416.107 104.869 417.676 104.895 418.826 105.012C420.251 105.155 420.773 106.157 420.865 107.718C420.969 109.292 420.969 110.658 420.969 118.178V124.357C420.969 129.652 420.76 133.906 418.12 136.534C415.728 138.915 412.592 139.162 411.363 139.162C409.651 139.162 407.403 138.941 405.234 137.171C403.247 135.558 401.404 132.969 401.404 125.112V118.191C401.404 110.658 401.404 109.305 401.496 107.731C401.6 105.923 402.045 105.246 403.234 105.025L404.645 104.882C405.051 104.83 405.56 104.882 405.56 104.31C405.56 103.789 404.933 103.737 404.345 103.737L400.712 103.828L398.228 103.893L395.614 103.815L391.027 103.724C390.439 103.724 389.812 103.763 389.812 104.297C389.812 104.869 390.334 104.83 390.779 104.869C390.779 104.869 391.223 104.895 392.687 105.012C394.151 105.129 394.634 106.157 394.726 107.718C394.83 109.292 394.83 110.658 394.83 118.178V125.398C394.83 131.668 396.242 135.857 399.287 138.576C403.103 142.024 408.213 142.024 410.383 142.024C413.271 142.024 417.075 141.608 420.786 138.433C424.969 134.869 425.544 129.132 425.544 123.459V118.178C425.544 110.645 425.544 109.292 425.648 107.718C425.753 105.91 426.184 105.233 427.386 105.012L428.811 104.869C429.386 104.817 429.83 104.804 429.83 104.297C429.83 103.776 429.229 103.724 428.667 103.724L424.42 103.828Z" fill="#000F46"></path>
<path d="M445.148 122.861C444.887 122.744 444.782 122.614 444.782 122.08V107.068C444.782 106.703 444.86 106.573 445.135 106.495C445.579 106.352 446.39 106.3 447.736 106.3C450.52 106.3 455.211 108.173 455.211 115.224C455.211 119.765 453.408 121.755 452.336 122.536C451.487 123.147 450.859 123.355 448.886 123.355C447.474 123.342 446.076 123.16 445.148 122.861ZM445.331 103.802L441.685 103.88L439.698 103.828L434.888 103.724C434.3 103.724 433.673 103.763 433.673 104.284C433.673 104.856 434.326 104.856 434.64 104.856L436.548 104.999C438.169 105.194 438.496 106.144 438.587 107.705C438.679 109.279 438.679 110.645 438.679 118.178V126.868C438.679 131.395 438.679 135.311 438.43 137.379C438.247 138.706 438.025 139.812 437.084 139.994L435.32 140.19C434.875 140.229 434.392 140.242 434.392 140.71C434.392 141.321 435.241 141.321 435.516 141.321L439.554 141.217L441.567 141.165L443.174 141.204L448.873 141.321C449.147 141.321 449.984 141.321 449.984 140.71C449.984 140.554 449.918 140.19 449.265 140.19L446.847 139.994C445.514 139.812 445.174 138.941 445.017 137.379C444.769 135.311 444.769 131.382 444.769 126.816V126.126C444.769 125.918 444.834 125.853 445.043 125.853L449.356 125.957C449.696 125.957 449.944 126.009 450.154 126.256L452.532 129.522L455.068 133.073C457.969 137.041 459.825 139.266 461.916 140.372C463.262 141.087 464.569 141.334 467.288 141.334H470.673C471.013 141.334 471.744 141.334 471.744 140.723C471.744 140.502 471.601 140.19 471.039 140.085L470.921 140.059C470.124 139.903 468.176 139.5 465.497 136.729C462.975 134.088 460.1 130.484 456.466 125.918C456.466 125.918 454.924 123.993 454.793 123.824C459.355 120.116 461.302 116.799 461.302 112.74C461.302 109.136 459.054 106.664 457.865 105.871C455.094 103.971 451.657 103.724 448.664 103.724L445.331 103.802Z" fill="#000F46"></path>
<path d="M479.73 104.687L479.286 133.932C479.233 138.186 479.037 139.578 477.835 139.942C477.103 140.15 476.515 140.189 476.018 140.189C475.77 140.189 475.103 140.189 475.103 140.71C475.103 141.321 475.809 141.321 476.319 141.321L480.462 141.204L482.684 141.217L487.14 141.321C487.545 141.321 488.408 141.321 488.408 140.71C488.408 140.189 487.728 140.189 487.441 140.189C486.709 140.189 486.069 140.15 485.219 139.851C484.147 139.474 483.651 137.874 483.559 134.478C483.559 134.478 483.023 114.392 483.023 113.95C483.298 114.184 484.03 114.977 484.03 114.977C486.121 117.267 490.46 122.002 494.773 126.269L501.36 132.839L509.424 140.801C509.999 141.36 510.6 141.92 511.201 141.92C511.881 141.92 511.972 141.087 511.972 140.268L512.521 109.084C512.574 106.326 512.665 105.233 513.946 104.999L515.397 104.856C516.168 104.804 516.416 104.661 516.416 104.284C516.416 103.711 515.658 103.711 515.148 103.711L511.502 103.828L510.6 103.867L508.849 103.815L504.915 103.711C504.314 103.711 503.503 103.711 503.503 104.284C503.503 104.778 503.987 104.856 504.431 104.856C505.124 104.856 505.973 104.856 506.692 105.142C507.738 105.584 508.248 106.339 508.3 109.474C508.3 109.474 508.77 130.38 508.797 131.681L508.666 131.538C508.666 131.486 505.189 127.883 505.189 127.883L497.831 120.298C490.29 112.831 482.527 104.518 482.448 104.44L481.978 103.932C481.39 103.295 481.011 102.865 480.514 102.865C479.808 102.891 479.73 103.919 479.73 104.687Z" fill="#000F46"></path>
<path d="M540.595 103.828C539.915 103.867 531.642 103.88 528.192 103.88L525.656 103.802L525.068 103.776L521.043 103.724C520.454 103.724 519.827 103.763 519.827 104.283C519.827 104.856 520.428 104.856 520.794 104.856L522.702 104.999C524.441 105.207 524.65 106.144 524.741 107.705C524.846 109.279 524.846 110.645 524.846 118.178V126.868C524.846 131.395 524.846 135.311 524.598 137.379C524.415 138.693 524.192 139.799 523.251 139.994L521.487 140.189C520.951 140.228 520.572 140.241 520.572 140.71C520.572 141.321 521.409 141.321 521.683 141.321L525.107 141.217L527.943 141.165L533.106 141.308L534.543 141.347L541.692 141.464C543.561 141.464 544.123 141.464 544.489 140.085C544.738 139.084 545.143 135.727 545.143 134.569C545.143 134.075 545.143 133.555 544.62 133.555C544.15 133.555 544.045 133.906 543.953 134.4C543.601 136.43 543.012 137.392 541.784 137.965C540.516 138.55 538.425 138.55 537.17 138.55C532.021 138.55 531.433 137.731 531.341 134.517L531.328 128.897L531.341 126.855V122.952C531.341 122.575 531.433 122.575 531.511 122.575C532.622 122.575 537.589 122.627 538.543 122.718C540.111 122.887 540.948 123.446 541.209 124.552L541.366 125.866L541.405 126.308C541.405 126.66 541.601 126.868 541.98 126.868C542.555 126.868 542.555 126.204 542.555 125.801L542.647 124.201L542.751 122.497L543.091 119.426L543.156 118.893C543.156 118.568 542.986 118.373 542.686 118.373C542.398 118.373 542.189 118.62 541.862 118.984C541.379 119.517 540.66 119.661 539.497 119.752C538.765 119.817 535.955 119.856 531.564 119.856C531.407 119.856 531.341 119.817 531.341 119.426V106.924C531.341 106.547 531.459 106.547 531.564 106.547C532.518 106.547 537.745 106.651 538.595 106.742C541.091 107.041 541.51 107.64 541.823 108.446C542.111 109.11 542.111 110.073 542.111 110.177C542.111 110.424 542.111 110.996 542.686 110.996C543.169 110.996 543.274 110.515 543.3 110.359L543.483 108.095L543.561 107.08L543.888 104.349L543.953 103.854C543.993 103.412 543.81 103.282 543.535 103.282C543.091 103.334 541.509 103.802 540.595 103.828Z" fill="#000F46"></path>
<path d="M273.65 103.828C272.97 103.867 264.697 103.88 261.247 103.88L258.711 103.802L258.123 103.776L254.098 103.724C253.51 103.724 252.882 103.763 252.882 104.283C252.882 104.856 253.483 104.856 253.849 104.856L255.757 104.999C257.496 105.207 257.705 106.144 257.796 107.705C257.901 109.279 257.901 110.645 257.901 118.178V126.868C257.901 131.395 257.901 135.311 257.653 137.379C257.47 138.693 257.247 139.799 256.306 139.994L254.542 140.189C254.006 140.228 253.627 140.241 253.627 140.71C253.627 141.321 254.464 141.321 254.738 141.321L258.162 141.217L260.998 141.165L266.161 141.308L267.598 141.347L274.748 141.464C276.616 141.464 277.178 141.464 277.544 140.085C277.793 139.084 278.198 135.727 278.198 134.569C278.198 134.075 278.198 133.555 277.675 133.555C277.205 133.555 277.1 133.906 277.009 134.4C276.656 136.43 276.068 137.392 274.839 137.965C273.571 138.55 271.48 138.55 270.225 138.55C265.076 138.55 264.488 137.731 264.396 134.517L264.383 128.897L264.396 126.855V122.952C264.396 122.575 264.488 122.575 264.566 122.575C265.677 122.575 270.644 122.627 271.598 122.718C273.166 122.887 274.003 123.446 274.264 124.552L274.421 125.866L274.46 126.308C274.46 126.66 274.656 126.868 275.035 126.868C275.61 126.868 275.61 126.204 275.61 125.801L275.702 124.201L275.806 122.497L276.146 119.426L276.211 118.893C276.211 118.568 276.041 118.373 275.741 118.373C275.453 118.373 275.244 118.62 274.917 118.984C274.434 119.517 273.715 119.661 272.552 119.752C271.82 119.817 269.01 119.856 264.619 119.856C264.462 119.856 264.396 119.817 264.396 119.426V106.924C264.396 106.547 264.514 106.547 264.619 106.547C265.573 106.547 270.801 106.651 271.65 106.742C274.146 107.041 274.565 107.64 274.878 108.446C275.166 109.11 275.166 110.073 275.166 110.177C275.166 110.424 275.166 110.996 275.741 110.996C276.224 110.996 276.329 110.515 276.355 110.359L276.538 108.095L276.616 107.08L276.943 104.349L277.009 103.854C277.048 103.412 276.865 103.282 276.59 103.282C276.146 103.334 274.565 103.802 273.65 103.828Z" fill="#000F46"></path>
<path d="M243.655 39.0673H242.714L239.46 38.9763C239.277 38.9763 238.689 38.9762 238.689 39.4836C238.689 39.7438 238.911 39.9259 239.198 39.9259L240.257 40.004C241.133 40.1991 241.394 40.5504 241.459 41.6302L241.525 48.5902V49.2667L227.815 49.2017L227.867 48.5772L227.933 41.6172C227.998 40.5244 228.246 40.1211 228.939 39.991L229.71 39.8999C229.997 39.8999 230.22 39.7178 230.22 39.4576C230.22 39.1194 229.958 38.9502 229.449 38.9502L226.809 39.0283H225.841L222.6 38.9372C222.09 38.9372 221.829 39.1063 221.829 39.4446C221.829 39.6918 222.051 39.8869 222.339 39.8869L223.384 39.965C224.273 40.1601 224.534 40.5114 224.587 41.5911L224.652 48.5642V54.2623C224.652 57.2935 224.652 59.8954 224.495 61.2354C224.365 62.1981 224.208 62.7054 223.75 62.7965C223.737 62.7965 222.822 62.9266 222.822 62.9266C222.469 62.9266 222.313 63.1477 222.313 63.3689C222.313 63.8763 222.888 63.8763 223.084 63.8763L225.737 63.7982L226.652 63.7852L230.272 63.8633C230.952 63.8633 231.03 63.512 231.03 63.3559C231.03 63.1347 230.873 62.9136 230.533 62.9136L229.096 62.7835C228.338 62.6794 228.142 62.172 228.05 61.2224C227.88 59.8824 227.88 57.2675 227.88 54.2363V50.8408L241.603 50.8929L241.538 54.2363C241.538 57.2675 241.538 59.8694 241.368 61.2093C241.25 62.146 241.094 62.6794 240.623 62.7705C240.61 62.7705 239.708 62.9006 239.708 62.9006C239.355 62.9006 239.198 63.1347 239.198 63.3429C239.198 63.8503 239.773 63.8503 239.97 63.8503L242.623 63.7722H243.524L247.145 63.8503C247.85 63.8503 247.916 63.499 247.916 63.3429C247.916 63.1347 247.759 62.9006 247.406 62.9006L245.982 62.7705C245.21 62.6664 245.027 62.159 244.923 61.2093C244.766 59.8694 244.766 57.2545 244.766 54.2233V48.5252L244.831 41.5651C244.897 40.4463 245.132 40.069 245.825 39.9389L246.596 39.8479C246.896 39.8479 247.105 39.6657 247.105 39.4056C247.105 38.8982 246.53 38.8982 246.334 38.8982L243.655 39.0673Z" fill="#000F46"></path>
<path d="M264.462 38.8982C263.808 39.0283 263.116 39.0543 263.116 39.0543L255.692 39.0803L255.261 39.0673L252.033 38.9892C251.837 38.9892 251.262 38.9892 251.262 39.4966C251.262 39.7568 251.471 39.9259 251.771 39.9389L252.817 40.017C253.653 40.082 253.967 40.5634 254.019 41.6432L254.085 48.6032V54.3013C254.085 57.3325 254.085 59.9344 253.928 61.2744C253.797 62.2371 253.64 62.7444 253.183 62.8485C253.052 62.8615 252.255 62.9656 252.255 62.9656C251.863 62.9916 251.758 63.1868 251.758 63.4079C251.758 63.9153 252.32 63.9153 252.516 63.9153L255.156 63.8372L256.934 63.8632L263.717 64.0064C264.998 64.0064 265.429 64.0064 265.703 62.9916C265.873 62.3151 266.135 60.0905 266.135 59.7913C266.135 59.5571 266.135 59.0628 265.69 59.0628C265.285 59.0628 265.207 59.5051 265.168 59.7523C264.958 61.0012 264.593 61.5866 263.848 61.8988C263.05 62.2371 261.652 62.2371 260.828 62.2371C257.692 62.2371 257.391 61.8468 257.313 59.8173V55.7324V54.3143V51.4653C257.313 51.4783 261.913 51.6474 261.913 51.6474C263.011 51.7515 263.325 52.2198 263.39 52.5971C263.455 52.9744 263.508 53.5988 263.508 53.5988C263.547 53.9501 263.704 54.1322 263.978 54.1322C264.462 54.1322 264.462 53.5598 264.462 53.2736L264.593 51.2311L264.854 49.3968C264.854 48.9284 264.527 48.8894 264.449 48.8894C264.279 48.9024 264.017 49.2146 263.795 49.3708C263.272 49.67 263.286 49.696 262.41 49.7741L257.274 49.8391L257.326 40.8366C257.718 40.7585 261.168 40.7845 261.691 40.8496C263.469 41.0447 263.638 41.435 263.808 41.7993C263.808 41.7863 263.978 42.8661 263.978 42.8661C263.978 43.4645 264.331 43.5295 264.488 43.5295C264.658 43.5295 264.867 43.4255 264.958 42.9701C264.958 42.9571 265.089 41.3309 265.089 41.3309L265.128 40.8106L265.324 39.7048L265.39 39.2755C265.39 38.7681 265.115 38.7421 265.011 38.7421C264.906 38.7421 264.749 38.8331 264.462 38.8982Z" fill="#000F46"></path>
<path d="M308.441 40.4073L308.415 58.9327C308.415 61.8208 308.179 62.7054 307.617 62.7965C307.055 62.8875 306.35 62.9786 306.35 62.9786C305.958 63.0046 305.84 63.1998 305.84 63.4209C305.84 63.9283 306.376 63.9283 306.611 63.9283L309.199 63.8502H310.205L313.172 63.9283C313.407 63.9283 313.995 63.9283 313.995 63.4209C313.995 63.2128 313.904 63.0176 313.486 62.9786C313.486 62.9786 312.532 62.8875 311.93 62.7965C311.316 62.7054 310.924 62.0029 310.846 59.2839C310.846 59.2839 310.48 45.6761 310.44 44.4662C311.251 45.3508 318.465 53.2476 318.465 53.2476C321.994 57.0333 326.607 61.7167 326.947 62.0289C328.803 63.8632 329.13 64.1625 329.483 64.1625C329.979 64.1625 330.019 63.7722 330.019 61.6256C330.019 61.6126 330.071 42.6969 330.071 42.6969C330.071 40.6805 330.241 40.2251 331.077 40.056L331.809 39.9649C332.24 39.9129 332.41 39.7178 332.41 39.4836C332.41 39.0153 331.848 39.0153 331.574 39.0153L329.391 39.0803H328.11L325.431 39.0153C325.117 39.0153 324.529 39.0153 324.529 39.4836C324.529 39.7828 324.66 39.9389 325.039 39.9649L326.581 40.1211C327.365 40.2512 327.627 40.7585 327.653 42.9571C327.653 42.9571 327.927 55.7063 328.006 58.7245C327.379 58.048 325.588 56.1096 325.588 56.1096L320.661 50.7628L310.048 39.3795C309.591 38.8722 309.29 38.5729 309.016 38.5729C308.48 38.5469 308.441 39.2754 308.441 40.4073Z" fill="#000F46"></path>
<path d="M340.344 39.0673H339.324L336.54 38.9892C336.357 38.9892 335.782 38.9892 335.782 39.4966C335.782 39.7438 335.939 39.9129 336.279 39.9389L337.233 40.056C337.73 40.121 338.082 40.4853 338.148 41.6561L338.213 48.6162V54.3143C338.213 57.3455 338.213 59.9474 338.043 61.2873C337.899 62.2761 337.756 62.7574 337.298 62.8485C337.285 62.8485 336.37 62.9786 336.37 62.9786C335.952 63.0176 335.861 63.2127 335.861 63.4209C335.861 63.9283 336.436 63.9283 336.632 63.9283L339.285 63.8502H340.187L343.807 63.9283C344.5 63.9283 344.578 63.577 344.578 63.4209C344.578 63.2127 344.447 63.0046 344.081 62.9786L342.657 62.8485C341.886 62.7444 341.69 62.237 341.598 61.2873C341.428 59.9474 341.428 57.3325 341.428 54.3013V48.6032L341.494 41.6431C341.559 40.5503 341.794 40.147 342.487 40.0169L343.258 39.9259C343.585 39.8999 343.768 39.7438 343.768 39.4836C343.768 38.9762 343.18 38.9762 342.997 38.9762L340.344 39.0673Z" fill="#000F46"></path>
<path d="M370.26 39.0673H369.031L366.6 39.0022C366.273 39.0022 365.646 39.0022 365.646 39.5096C365.646 39.6787 365.711 39.9259 366.247 39.9519L367.397 40.056C367.659 40.095 367.711 40.3552 367.659 40.5633L367.371 41.7082C366.718 43.8547 362.692 54.3273 360.68 59.0627C360.275 57.983 354.655 43.0872 354.655 43.0872C354.184 41.8773 353.792 40.8626 353.792 40.4983C353.792 40.3292 353.831 40.121 354.08 40.069L355.204 39.9389C355.766 39.8869 355.779 39.6006 355.779 39.4575C355.779 38.9892 355.073 38.9892 354.655 38.9892L352.302 39.0543H350.838L347.845 38.9892C347.388 38.9892 346.761 38.9892 346.761 39.4575C346.761 39.7437 346.904 39.8999 347.27 39.9389L348.434 40.056C349.414 40.2251 349.91 40.6284 350.616 42.3977L358.641 62.4062C359.242 63.9152 359.425 64.3706 359.974 64.3706C360.379 64.3706 360.523 64.0453 360.993 62.9786L361.555 61.7557L365.568 52.4019L367.489 47.7836L369.397 43.2043C370.247 41.0707 370.717 40.5373 371.096 40.2771C371.645 39.9259 372.298 39.9259 372.508 39.9259C373.056 39.9259 373.148 39.6267 373.148 39.4445C373.148 39.1323 372.874 38.9762 372.351 38.9762L370.26 39.0673Z" fill="#000F46"></path>
<path d="M419.767 44.6093C419.767 46.8209 420.499 48.8894 424.08 51.8165L425.531 53.0134C428.393 55.3551 429.177 56.5649 429.177 58.6464C429.177 60.6499 427.674 62.6924 424.786 62.6924C423.609 62.6924 420.786 62.3931 420.211 59.5961L420.133 58.4513C420.133 58.2692 420.133 57.8529 419.662 57.8529C419.231 57.8529 419.179 58.3342 419.153 58.5814C419.153 58.5944 419.127 58.9066 419.127 58.9066L418.983 62.0419C418.983 62.9135 419.009 63.1997 419.61 63.4859C420.865 64.0974 422.329 64.3836 424.08 64.3836C426.053 64.3836 427.805 63.9022 429.125 62.9786C431.242 61.4825 432 59.1278 432 57.4105C432 54.8737 431.203 52.7922 427.151 49.6179L426.249 48.9024C423.139 46.3655 422.381 45.3378 422.381 43.6596C422.381 41.5651 423.884 40.1471 426.119 40.1471C428.811 40.1471 429.7 41.2659 429.961 41.7342C430.131 42.0594 430.327 42.892 430.353 43.2563C430.379 43.4905 430.432 43.9068 430.863 43.9068C431.347 43.9068 431.347 43.2563 431.347 42.905L431.451 39.7307L431.464 39.4836C431.451 39.0543 431.059 39.0282 430.902 39.0152C430.745 39.0022 429.817 38.8591 429.817 38.8591C428.889 38.638 427.909 38.5209 426.746 38.5209C422.564 38.5469 419.767 40.9797 419.767 44.6093Z" fill="#000F46"></path>
<path d="M489.414 39.0673H488.042L486.422 38.9892C485.755 38.9892 485.65 39.2624 485.65 39.4315C485.65 39.7698 485.977 39.8738 486.278 39.9779C486.435 40.043 486.657 40.082 486.657 40.6544C486.657 41.1227 486.487 41.6301 486.134 42.1765C485.585 43.0872 481.939 49.3317 480.932 51.2961C479.861 49.5008 475.678 42.3326 475.195 41.474C474.946 41.0187 474.803 40.6674 474.803 40.3292C474.803 40.1861 474.894 40.056 475.09 39.9649L475.26 39.8999C475.469 39.8218 475.718 39.7307 475.718 39.4575C475.718 39.1453 475.495 38.9892 475.051 38.9892L472.764 39.0673H471.562L469.117 38.9892C468.477 38.9892 468.438 39.3795 468.438 39.4575C468.438 39.7307 468.673 39.9259 469.013 39.9259C469.235 39.9259 469.823 40.095 470.281 40.4072C470.921 40.8365 471.718 41.7082 472.411 42.7359C473.587 44.4532 477.913 51.5303 478.109 52.0116C478.541 52.9613 478.841 53.6248 478.841 55.303V58.087L478.737 61.3004C478.684 61.9378 478.514 62.7444 477.926 62.8615L476.998 62.9786C476.567 63.0306 476.489 63.1997 476.489 63.4209C476.489 63.9152 477.064 63.9152 477.26 63.9152L479.913 63.8372H480.815L484.422 63.9152C485.115 63.9152 485.193 63.564 485.193 63.4209C485.193 63.1997 485.036 62.9786 484.683 62.9786L483.259 62.8485C482.54 62.7444 482.213 62.3021 482.135 61.2873L482.043 58.074V55.29C482.043 54.2492 482.043 53.2605 482.514 52.1547C483.063 50.8278 487.585 43.2563 488.669 41.9293C489.401 41.0447 489.741 40.6934 490.329 40.3422C490.774 40.056 491.349 39.9259 491.689 39.9259C492.185 39.9259 492.355 39.6527 492.355 39.4185C492.355 39.2234 492.185 38.9762 491.689 38.9762L489.414 39.0673Z" fill="#000F46"></path>
<path d="M501.373 51.4262C501.373 57.6707 505.398 64.3836 514.22 64.3836C521.866 64.3836 527.421 58.7115 527.421 50.9058C527.421 43.5165 522.193 38.5469 514.416 38.5469C504.915 38.5469 501.373 46.4436 501.373 51.4262ZM504.954 50.5155C504.954 44.1019 508.483 40.134 514.181 40.134C518.821 40.134 523.813 43.7897 523.813 51.8165C523.813 62.1329 516.547 62.6533 515.096 62.6533C509.123 62.6533 504.954 57.6577 504.954 50.5155Z" fill="#000F46"></path>
<path d="M543.182 39.0413C543.065 39.0543 542.803 39.0543 542.803 39.0543L534.831 39.0803L534.4 39.0673L531.158 38.9892C530.975 38.9892 530.387 38.9892 530.387 39.4966C530.387 39.7438 530.544 39.9129 530.897 39.9389L531.943 40.03C532.818 40.1471 533.093 40.5764 533.145 41.6562L533.21 48.6292V54.3273C533.21 57.3455 533.21 59.9604 533.054 61.3004C532.923 62.2631 532.766 62.7704 532.309 62.8745L531.381 63.0046C530.962 63.0436 530.871 63.2258 530.871 63.4469C530.871 63.9543 531.446 63.9543 531.642 63.9543L534.295 63.8762H535.223L538.83 63.9543C539.523 63.9543 539.601 63.603 539.601 63.4469C539.601 63.2258 539.471 63.0306 539.092 63.0046L537.667 62.8745C536.896 62.7704 536.7 62.2631 536.621 61.3134C536.452 59.9734 536.452 57.3585 536.452 54.3273V51.5693C537.654 51.5173 540.582 51.5303 541.3 51.6214C542.163 51.7254 542.66 52.2458 542.79 52.6231C542.921 53.0004 542.96 53.4427 542.96 53.7419C542.96 54.0411 543.156 54.2493 543.431 54.2493C543.901 54.2493 543.901 53.6899 543.901 53.3906L544.032 51.2571L544.293 49.4228C544.346 48.9674 543.98 48.9154 543.888 48.9154C543.653 48.9154 543.509 49.0975 543.378 49.2667C543.104 49.6439 542.816 49.761 542.006 49.8131L540.569 49.8521L536.412 49.8781L536.425 40.9146C536.465 40.8105 541.457 40.9016 541.457 40.9016C542.62 40.9276 543.339 41.383 543.457 41.7993C543.561 42.1115 543.718 42.9311 543.718 42.9311C543.836 43.5685 544.11 43.5555 544.189 43.5555C544.359 43.5555 544.62 43.5035 544.698 43.0091C544.698 42.9961 544.803 41.2529 544.868 40.8366C544.908 40.6284 545.051 39.7438 545.051 39.7438L545.13 39.3145C545.182 38.9502 544.934 38.7551 544.685 38.7681C544.411 38.7551 543.718 39.0022 543.182 39.0413Z" fill="#000F46"></path>
<path d="M301.841 39.0672L300.834 39.0803L297.841 39.0022C297.658 39.0022 297.083 39.0022 297.083 39.5096C297.083 39.7567 297.305 39.9519 297.58 39.9519L298.626 40.0299C299.593 40.147 299.776 40.6284 299.841 41.6561C299.841 41.6691 299.906 48.6162 299.906 48.6162V52.6621C299.906 56.5259 299.357 58.8416 298.077 60.4287C296.913 61.8077 295.044 62.6663 293.176 62.6663C291.333 62.6663 289.973 62.3801 288.431 60.9491C287.268 59.8433 286.079 58.048 286.079 53.1434V48.6162L286.144 41.6561C286.209 40.5373 286.458 40.134 287.137 40.043L287.909 39.9519C288.222 39.9129 288.418 39.7698 288.418 39.5096C288.418 39.0022 287.843 39.0022 287.647 39.0022L285.242 39.0672L283.765 39.0803L280.707 39.0022C280.511 39.0022 279.936 39.0022 279.936 39.5096C279.936 39.7567 280.158 39.9519 280.446 39.9519L281.491 40.0299C282.341 40.121 282.641 40.5633 282.694 41.6561L282.759 48.6162V53.3386C282.759 58.5684 284.314 60.7279 285.661 62.0289C287.856 64.0844 290.901 64.3966 292.509 64.3966C294.26 64.3966 296.874 64.1494 299.37 61.9378C302.089 59.5311 302.442 55.4071 302.442 52.0897V48.6292L302.507 41.6691C302.573 40.5633 302.808 40.173 303.514 40.056C303.527 40.056 304.272 39.9649 304.272 39.9649C304.598 39.9389 304.781 39.7828 304.781 39.5226C304.781 39.0152 304.206 39.0152 304.023 39.0152L301.841 39.0672Z" fill="#000F46"></path>
<path d="M198.618 39.2494C198.579 39.3794 197.86 42.3716 197.86 42.7619C197.86 43.1652 198.082 43.2953 198.278 43.2953C198.618 43.2953 198.748 43.0221 198.827 42.8139C198.827 42.8269 199.35 41.8642 199.35 41.8642C199.807 41.1878 200.5 40.9796 202.46 40.9406C202.46 40.9406 206.041 40.8885 207.008 40.8755V54.3012C207.008 57.3324 207.008 59.9473 206.852 61.2743C206.721 62.237 206.564 62.7444 206.107 62.8484C205.349 62.9785 205.179 62.9785 205.179 62.9785C204.826 62.9785 204.669 63.1997 204.669 63.4208C204.669 63.9282 205.244 63.9282 205.44 63.9282L208.093 63.8502H208.995L212.615 63.9282C213.308 63.9282 213.386 63.577 213.386 63.4208C213.386 63.1997 213.23 62.9785 212.877 62.9785L211.452 62.8484C210.681 62.7444 210.485 62.237 210.406 61.2873C210.237 59.9343 210.237 57.3324 210.237 54.3012V40.8755C210.681 40.8885 214.079 40.9406 214.079 40.9406C217.203 41.0056 217.725 41.7732 217.83 42.5147L217.856 42.866C217.882 43.1782 217.921 43.6335 218.366 43.6335C218.444 43.6335 218.849 43.6075 218.849 42.97L218.876 41.9423L218.941 39.4315C218.941 39.2363 218.941 38.781 218.536 38.781L218.144 38.8461C217.686 38.9371 216.824 39.1062 215.321 39.1062H203.14C203.14 39.1062 200.866 38.9892 200.604 38.9501C200.343 38.9111 199.559 38.6899 199.559 38.6899L199.167 38.5729C199.154 38.5729 199.141 38.5729 199.141 38.5729C198.853 38.5599 198.735 38.9111 198.618 39.2494Z" fill="#000F46"></path>
<path d="M388.544 38.8982C387.89 39.0283 387.198 39.0543 387.198 39.0543L379.774 39.0803L379.343 39.0673L376.115 38.9892C375.919 38.9892 375.344 38.9892 375.344 39.4966C375.344 39.7568 375.553 39.9259 375.853 39.9389L376.899 40.017C377.735 40.082 378.049 40.5634 378.101 41.6432L378.167 48.6032V54.3013C378.167 57.3325 378.167 59.9344 378.01 61.2744C377.879 62.2371 377.722 62.7444 377.265 62.8485C377.134 62.8615 376.337 62.9656 376.337 62.9656C375.945 62.9916 375.84 63.1868 375.84 63.4079C375.84 63.9153 376.402 63.9153 376.598 63.9153L379.238 63.8372L381.016 63.8632L387.799 64.0064C389.08 64.0064 389.511 64.0064 389.785 62.9916C389.955 62.3151 390.217 60.0905 390.217 59.7913C390.217 59.5571 390.217 59.0628 389.772 59.0628C389.367 59.0628 389.289 59.5051 389.25 59.7523C389.041 61.0012 388.675 61.5866 387.93 61.8988C387.132 62.2371 385.734 62.2371 384.911 62.2371C381.774 62.2371 381.473 61.8468 381.395 59.8173V55.7324V54.3143V51.4653C381.395 51.4783 385.995 51.6474 385.995 51.6474C387.093 51.7515 387.407 52.2198 387.472 52.5971C387.537 52.9744 387.59 53.5988 387.59 53.5988C387.629 53.9501 387.786 54.1322 388.06 54.1322C388.544 54.1322 388.544 53.5598 388.544 53.2736L388.675 51.2311L388.936 49.3968C388.936 48.9284 388.609 48.8894 388.531 48.8894C388.361 48.9024 388.1 49.2146 387.877 49.3708C387.355 49.67 387.368 49.696 386.492 49.7741L381.356 49.8391L381.408 40.8366C381.8 40.7585 385.25 40.7845 385.773 40.8496C387.551 41.0447 387.72 41.435 387.89 41.7993C387.89 41.7863 388.06 42.8661 388.06 42.8661C388.06 43.4645 388.413 43.5295 388.57 43.5295C388.74 43.5295 388.949 43.4255 389.04 42.9701C389.04 42.9571 389.171 41.3309 389.171 41.3309L389.21 40.8106L389.406 39.7048L389.472 39.2755C389.472 38.7681 389.197 38.7421 389.093 38.7421C388.962 38.7421 388.831 38.8331 388.544 38.8982Z" fill="#000F46"></path>
<path d="M439.293 39.0673H438.273L435.49 38.9892C435.307 38.9892 434.732 38.9892 434.732 39.4966C434.732 39.7438 434.888 39.9129 435.228 39.9389L436.182 40.056C436.679 40.121 437.032 40.4853 437.097 41.6561L437.162 48.6162V54.3143C437.162 57.3455 437.162 59.9474 436.993 61.2873C436.849 62.2761 436.705 62.7574 436.248 62.8485C436.234 62.8485 435.32 62.9786 435.32 62.9786C434.901 63.0176 434.81 63.2127 434.81 63.4209C434.81 63.9283 435.385 63.9283 435.581 63.9283L438.234 63.8502H439.136L442.756 63.9283C443.449 63.9283 443.527 63.577 443.527 63.4209C443.527 63.2127 443.397 63.0046 443.031 62.9786L441.606 62.8485C440.835 62.7444 440.639 62.237 440.547 61.2873C440.378 59.9474 440.378 57.3325 440.378 54.3013V48.6032L440.443 41.6431C440.508 40.5503 440.743 40.147 441.436 40.0169L442.207 39.9259C442.534 39.8999 442.717 39.7438 442.717 39.4836C442.717 38.9762 442.129 38.9762 441.946 38.9762L439.293 39.0673Z" fill="#000F46"></path>
<path d="M445.684 39.2494C445.645 39.3794 444.926 42.3716 444.926 42.7619C444.926 43.1652 445.148 43.2953 445.344 43.2953C445.684 43.2953 445.814 43.0221 445.893 42.8139C445.893 42.8269 446.416 41.8642 446.416 41.8642C446.873 41.1878 447.566 40.9796 449.526 40.9406C449.526 40.9406 453.107 40.8885 454.074 40.8755V54.3012C454.074 57.3324 454.074 59.9473 453.918 61.2743C453.787 62.237 453.63 62.7444 453.173 62.8484C452.415 62.9785 452.245 62.9785 452.245 62.9785C451.892 62.9785 451.735 63.1997 451.735 63.4208C451.735 63.9282 452.31 63.9282 452.506 63.9282L455.159 63.8502H456.061L459.681 63.9282C460.374 63.9282 460.452 63.577 460.452 63.4208C460.452 63.1997 460.296 62.9785 459.943 62.9785L458.518 62.8484C457.747 62.7444 457.551 62.237 457.473 61.2873C457.303 59.9343 457.303 57.3324 457.303 54.3012V40.8755C457.747 40.8885 461.145 40.9406 461.145 40.9406C464.269 41.0056 464.791 41.7732 464.896 42.5147L464.922 42.866C464.948 43.1782 464.987 43.6335 465.432 43.6335C465.51 43.6335 465.915 43.6075 465.915 42.97L465.942 41.9423L466.007 39.4315C466.007 39.2363 466.007 38.781 465.602 38.781L465.21 38.8461C464.752 38.9371 463.89 39.1062 462.387 39.1062H450.206C450.206 39.1062 447.932 38.9892 447.67 38.9501C447.409 38.9111 446.625 38.6899 446.625 38.6899L446.233 38.5729C446.22 38.5729 446.207 38.5729 446.207 38.5729C445.919 38.5599 445.801 38.9111 445.684 39.2494Z" fill="#000F46"></path>
<path d="M416.447 62.9006L416.29 62.8745C415.441 62.7444 414.134 62.3672 412.474 60.6239C410.775 58.8156 408.789 56.2788 406.488 53.3386C406.488 53.3386 406.044 52.7662 405.861 52.5321C408.475 50.0733 409.716 47.6926 409.716 45.0516C409.716 42.749 408.24 41.0838 407.377 40.4463C405.56 39.1584 403.286 38.9893 401.287 38.9893L398.542 39.0543L397.026 39.0673L393.785 38.9893C393.589 38.9893 393.014 38.9893 393.014 39.4966C393.014 39.7568 393.21 39.9259 393.523 39.9389L394.556 40.017C395.418 40.1211 395.706 40.5504 395.771 41.6432L395.837 48.6032V54.2883C395.837 57.3195 395.837 59.9344 395.667 61.2614C395.536 62.198 395.379 62.7314 394.922 62.8355L393.994 62.9656C393.589 63.0046 393.484 63.1868 393.484 63.4079C393.484 63.9023 394.059 63.9023 394.255 63.9023L397.183 63.8112C397.313 63.8112 397.692 63.8242 397.692 63.8242L401.3 63.9023C402.005 63.9023 402.084 63.551 402.084 63.4079C402.084 63.1868 401.979 62.9916 401.574 62.9656L400.15 62.8355C399.378 62.7314 399.182 62.2241 399.104 61.2744C398.934 59.9214 398.934 57.3195 398.934 54.2883V53.5078C398.921 53.4948 403.077 53.5598 403.077 53.5598C403.221 53.5728 407.116 59.0107 407.116 59.0107C408.736 61.1443 409.808 62.5493 411.141 63.2518C412.043 63.7332 412.905 63.8893 414.735 63.8893H415.964C416.369 63.8893 416.996 63.8893 416.996 63.3949C416.983 63.1738 416.735 62.9526 416.447 62.9006ZM404.606 51.5043C403.887 52.0117 402.999 52.0767 402.319 52.0767C400.777 52.0767 399.418 51.8295 399.039 51.6084C398.934 51.5433 398.934 51.4783 398.934 51.4263V40.8496C398.934 40.7715 398.96 40.7195 399.039 40.6935C399.287 40.6154 400.11 40.5114 401.13 40.5114C404.489 40.5114 406.501 42.84 406.501 46.7299C406.488 48.9415 405.783 50.7237 404.606 51.5043Z" fill="#000F46"></path>
</svg>